<?xml version="1.0" encoding="utf-8"?>
<!-- Generator: Adobe Illustrator 25.4.1, SVG Export Plug-In . SVG Version: 6.00 Build 0)  -->
<svg version="1.1" id="Layer_1" xmlns="http://www.w3.org/2000/svg" xmlns:xlink="http://www.w3.org/1999/xlink" x="0px" y="0px"
	 viewBox="0 0 1366 768" style="enable-background:new 0 0 1366 768;" xml:space="preserve">
<style type="text/css">
	.st0{fill:#C6C6C6;}
	.st1{fill:#FFFFFF;}
	.st2{fill:#1F1754;}
</style>
<g>
	<g>
		<path class="st0" d="M563.4,41.5L542.1,50l2.6-24.8L563.4,41.5z"/>
		<path class="st0" d="M587.7,34l-21.8,7l4.4-24.6L587.7,34z"/>
		<path class="st0" d="M611.4,28.8l-22.1,5.4l6.1-24.1L611.4,28.8z"/>
		<path class="st0" d="M635.9,24.1l-22.5,3.7l7.8-23.5L635.9,24.1z"/>
		<path class="st0" d="M661.7,22.3l-22.8,2.1l9.6-23L661.7,22.3z"/>
		<path class="st0" d="M688.4,21.8l-22.8,0.3L676.9,0L688.4,21.8z"/>
		<path class="st0" d="M714.9,23.2L692.1,22L705,0.7L714.9,23.2z"/>
		<path class="st0" d="M741.4,26.5l-22.7-3l14.3-20.4L741.4,26.5z"/>
		<path class="st0" d="M767.4,31.6L745.1,27L761,7.8L767.4,31.6z"/>
		<path class="st0" d="M793,38.7l-22-6.3l17.3-18L793,38.7z"/>
		<path class="st0" d="M818.1,47.8l-21.4-7.8l18.5-16.7L818.1,47.8z"/>
		<path class="st0" d="M842.4,58.6l-20.7-9.4l19.7-15.3L842.4,58.6z"/>
		<path class="st0" d="M865.9,71.1l-20-11l20.7-13.8L865.9,71.1z"/>
		<path class="st0" d="M888.4,85.4l-19.2-12.4l21.6-12.2L888.4,85.4z"/>
		<path class="st0" d="M909.7,101.3l-18.3-13.8l22.5-10.6L909.7,101.3z"/>
		<path class="st0" d="M929.7,118.7l-17.3-15l23.2-8.9L929.7,118.7z"/>
		<path class="st0" d="M948.6,137.6l-16-16.2l23.9-7.1L948.6,137.6z"/>
		<path class="st0" d="M966,157.6l-14.8-17.4l24.2-5.4L966,157.6z"/>
		<path class="st0" d="M981.9,179.1l-13.6-18.5l24.6-3.7L981.9,179.1z"/>
		<path class="st0" d="M996.1,201.5l-12.2-19.4l24.8-1.9L996.1,201.5z"/>
		<path class="st0" d="M1008.7,224.9l-10.6-20.2h24.9L1008.7,224.9z"/>
		<path class="st0" d="M1019.5,249.3l-9.2-20.9l24.8,1.9L1019.5,249.3z"/>
		<path class="st0" d="M1028.4,274.4l-7.7-21.6l24.6,3.7L1028.4,274.4z"/>
		<path class="st0" d="M1035.5,300.1l-5.9-22.1l24.2,5.4L1035.5,300.1z"/>
		<path class="st0" d="M1040.8,326l-4.4-22.5l23.9,7.3L1040.8,326z"/>
		<path class="st0" d="M1044.1,352.5l-2.6-22.7l23.2,9.1L1044.1,352.5z"/>
		<path class="st0" d="M1045.3,379l-1-22.8l22.5,10.6L1045.3,379z"/>
		<path class="st0" d="M1044.8,405.7l0.7-22.8l21.6,12.2L1044.8,405.7z"/>
		<path class="st0" d="M1042.2,432.2l2.3-22.7l20.7,13.8L1042.2,432.2z"/>
		<path class="st0" d="M1037.8,458.4l4-22.5l19.7,15.3L1037.8,458.4z"/>
		<path class="st0" d="M1031.4,484.2l5.6-22.1l18.5,16.7L1031.4,484.2z"/>
		<path class="st0" d="M1023,509.4l7.1-21.6l17.3,18L1023,509.4z"/>
		<path class="st0" d="M1012.9,534.2l8.9-21.1l15.9,19.2L1012.9,534.2z"/>
		<path class="st0" d="M1001,557.9l10.3-20.4l14.3,20.4H1001z"/>
		<path class="st0" d="M987.3,580.8l11.9-19.5l12.7,21.3L987.3,580.8z"/>
		<path class="st0" d="M972.1,602.5l13.3-18.7l11.2,22.1L972.1,602.5z"/>
		<path class="st0" d="M955.2,623.1l14.5-17.6l9.6,23L955.2,623.1z"/>
		<path class="st0" d="M936.9,642.5l15.9-16.6l7.8,23.5L936.9,642.5z"/>
		<path class="st0" d="M917.3,660.4l16.9-15.3l6.1,24.1L917.3,660.4z"/>
		<path class="st0" d="M896.4,676.8l18-14.1l4.4,24.6L896.4,676.8z"/>
		<path class="st0" d="M874.3,691.8l19-12.7l2.4,24.8L874.3,691.8z"/>
		<path class="st0" d="M851.3,704.9l19.9-11.3l0.7,24.9L851.3,704.9z"/>
		<path class="st0" d="M827.2,716.4l20.7-9.8l-1.2,24.9L827.2,716.4z"/>
		<path class="st0" d="M802.4,726.2l21.3-8.2l-3,24.8L802.4,726.2z"/>
		<path class="st0" d="M777,734l22-6.6l-4.7,24.4L777,734z"/>
		<path class="st0" d="M751,739.9l22.3-4.9l-6.6,24.1L751,739.9z"/>
		<path class="st0" d="M724.7,743.9l22.7-3.3l-8.4,23.5L724.7,743.9z"/>
		<path class="st0" d="M698.2,745.9l22.8-1.6l-10.1,22.8L698.2,745.9z"/>
		<path class="st0" d="M671.5,745.9l22.8,0.3l-12,21.8L671.5,745.9z"/>
		<path class="st0" d="M645,744.3l22.8,1.7l-13.3,21.1L645,744.3z"/>
		<path class="st0" d="M618.7,740.5l22.7,3.3L626.5,764L618.7,740.5z"/>
		<path class="st0" d="M592.7,734.9l22.3,5.1l-16.2,19L592.7,734.9z"/>
		<path class="st0" d="M567.3,727.2l21.8,6.6l-17.4,17.6L567.3,727.2z"/>
		<path class="st0" d="M542.3,717.8l21.3,8.2l-18.8,16.4L542.3,717.8z"/>
		<path class="st0" d="M518.3,706.6l20.7,9.8l-19.9,15L518.3,706.6z"/>
		<path class="st0" d="M495.1,693.6l19.9,11.3L494,718.3L495.1,693.6z"/>
		<path class="st0" d="M472.8,678.9l19,12.7l-22,11.9L472.8,678.9z"/>
		<path class="st0" d="M451.7,662.7l18,14.1L447,686.9L451.7,662.7z"/>
		<path class="st0" d="M432,644.9l16.9,15.3l-23.4,8.5L432,644.9z"/>
		<path class="st0" d="M413.5,625.7l15.9,16.6l-23.9,6.8L413.5,625.7z"/>
		<path class="st0" d="M396.4,605.3l14.5,17.6l-24.4,5.1L396.4,605.3z"/>
		<path class="st0" d="M380.9,583.7l13.3,18.7l-24.8,3.1L380.9,583.7z"/>
		<path class="st0" d="M367.1,561l11.9,19.5L354,582L367.1,561z"/>
		<path class="st0" d="M354.9,537.3l10.3,20.4l-24.9-0.3L354.9,537.3z"/>
		<path class="st0" d="M344.4,512.8l8.9,21.1l-24.8-2.3L344.4,512.8z"/>
		<path class="st0" d="M335.9,487.6l7.1,21.6l-24.6-4L335.9,487.6z"/>
		<path class="st0" d="M329.3,461.8l5.6,22.1l-24.1-5.9L329.3,461.8z"/>
		<path class="st0" d="M324.6,435.7l4,22.5l-23.7-7.7L324.6,435.7z"/>
		<path class="st0" d="M321.8,409.2l2.3,22.7l-23-9.4L321.8,409.2z"/>
		<path class="st0" d="M320.9,382.7l0.7,22.8l-22.3-11.2L320.9,382.7z"/>
		<path class="st0" d="M321.9,356l-1,22.8l-21.4-12.6L321.9,356z"/>
		<path class="st0" d="M324.9,329.5l-2.6,22.7l-20.4-14.1L324.9,329.5z"/>
		<path class="st0" d="M330,303.4l-4.4,22.5l-19.4-15.7L330,303.4z"/>
		<path class="st0" d="M336.8,277.7l-5.9,22.1l-18.3-17.1L336.8,277.7z"/>
		<path class="st0" d="M345.5,252.6l-7.7,21.6l-16.9-18.3L345.5,252.6z"/>
		<path class="st0" d="M356.1,228.2l-9.2,20.9l-15.5-19.5L356.1,228.2z"/>
		<path class="st0" d="M368.3,204.7l-10.6,20.2l-13.9-20.6L368.3,204.7z"/>
		<path class="st0" d="M382.4,182l-12.2,19.4l-12.4-21.6L382.4,182z"/>
		<path class="st0" d="M398.1,160.6l-13.6,18.5l-10.8-22.5L398.1,160.6z"/>
		<path class="st0" d="M415.2,140.2l-14.8,17.4l-9.2-23.2L415.2,140.2z"/>
		<path class="st0" d="M433.9,121.2l-16,16.2l-7.5-23.7L433.9,121.2z"/>
		<path class="st0" d="M453.9,103.6l-17.3,15l-5.8-24.2L453.9,103.6z"/>
		<path class="st0" d="M475,87.5l-18.3,13.8l-3.8-24.6L475,87.5z"/>
		<path class="st0" d="M495.9,73.6L476.8,86l-2.1-24.8L495.9,73.6z"/>
		<path class="st0" d="M516.3,61.9l-20,11l-0.3-24.9L516.3,61.9z"/>
		<ellipse class="st0" cx="683.1" cy="383.9" rx="358.8" ry="358.8"/>
		<ellipse class="st1" cx="683.1" cy="383.9" rx="230" ry="230"/>
		<ellipse class="st0" cx="683" cy="383.9" rx="216.2" ry="216.2"/>
		<ellipse class="st2" cx="683.2" cy="383.9" rx="206.1" ry="206.1"/>
		<ellipse class="st0" cx="683.2" cy="383.8" rx="192.3" ry="192.3"/>
		
			<ellipse transform="matrix(0.7071 -0.7071 0.7071 0.7071 -71.3809 595.4796)" class="st2" cx="683.1" cy="383.9" rx="178.9" ry="178.9"/>
		<path class="st0" d="M683.7,530.7c-0.9-7.1-2.4-13.4-6.5-13.9c-4-0.7-5.9,2.6-9.6,8s-11,16.7-11,16.7c-2.1-7.8-4.5-16.6-6.3-22.8
			c-1.4-4.7-1.7-6.5-5.8-7.1c-3.8-0.7-5.9,3.1-7.7,6.3c-1.6,3-3.5,7.1-7.8,16c-4,8-1.6,13.1,6.8,16.4s30.5,6.8,38.5,5.9
			c7.7-0.7,11.2-4.9,11-10.3C685.3,540.7,684.8,539.6,683.7,530.7z M640.8,546.8c-2.1-0.3-3.5-2.3-3.1-4.4c0.3-2.1,2.3-3.5,4.4-3.1
			c2.1,0.3,3.5,2.3,3.1,4.4C644.8,545.7,642.9,547.1,640.8,546.8z M671.5,551.5c-2.1-0.3-3.5-2.3-3.1-4.4c0.3-2.1,2.3-3.5,4.4-3.1
			c2.1,0.3,3.5,2.3,3.1,4.4C675.5,550.4,673.6,551.8,671.5,551.5z M740.9,518.7c-3.5-6.3-7.3-11.3-11.3-10.5c-4,0.9-4.5,4.7-5.9,11
			c-1.4,6.5-3.8,19.7-3.8,19.7c-4.9-6.5-10.5-13.6-14.6-18.7c-3.1-3.8-4-5.2-8-4.4c-3.8,0.9-4.2,5.2-4.5,8.7c-0.3,3.3-0.3,8-1,17.8
			c-0.5,9.1,3.5,12.7,12.6,12.6c9.1-0.2,30.9-5.4,37.8-9.2c6.8-3.7,8.5-8.7,6.3-13.8C746.1,527.2,745.3,526.5,740.9,518.7z
			 M707.4,549.9c-2.1,0.5-4.2-0.7-4.5-2.8c-0.5-2.1,0.7-4.2,2.8-4.5c2.1-0.5,4.2,0.7,4.5,2.8C710.7,547.3,709.3,549.4,707.4,549.9z
			 M737.4,542.6c-2.1,0.5-4.2-0.7-4.5-2.8c-0.5-2.1,0.7-4.2,2.8-4.5c2.1-0.5,4.2,0.7,4.5,2.8C740.7,540,739.5,542,737.4,542.6z
			 M800.9,495.5c-4-3.7-5.1-4-12-9.6c-5.6-4.4-11.2-7.7-14.5-5.4c-3.3,2.4-2.3,5.9-1.2,12.4c1.2,6.5,4,19.5,4,19.5
			c-7-4.2-14.8-8.5-20.6-11.7c-4.4-2.4-5.8-3.3-9.1-0.9c-3.1,2.3-1.9,6.5-0.9,9.9c0.9,3.3,2.6,7.5,5.8,16.9c3,8.5,8.2,10.5,16.4,6.8
			c8.4-3.7,26.3-16.9,31.4-23C805.2,504.7,804.9,499.3,800.9,495.5z M769.7,527.6c-1.7,1.2-4,0.9-5.4-0.9c-1.2-1.7-0.9-4.2,0.9-5.4
			s4.2-0.9,5.4,0.9C771.8,523.9,771.4,526.4,769.7,527.6z M794.8,509.3c-1.7,1.2-4,0.9-5.4-0.9c-1.2-1.7-0.9-4.2,0.9-5.4
			c1.7-1.2,4-0.9,5.4,0.9C796.9,505.6,796.5,508,794.8,509.3z M835.4,440.4c-5.1-1.9-6.3-1.7-14.8-4.2c-7-1.9-13.3-3-15.3,0.5
			s0.2,6.5,3.7,12c3.5,5.6,11.2,16.6,11.2,16.6c-8-1-16.9-2.1-23.5-2.8c-4.9-0.5-6.6-0.9-8.7,2.6c-2.1,3.3,0.7,6.6,3,9.4
			c2.1,2.6,5.4,5.9,11.9,13.3c5.9,6.8,11.5,6.5,17.8,0c6.3-6.6,18-25.6,20.2-33.3C842.9,447.2,840.5,442.3,835.4,440.4z
			 M818.8,481.9c-1,1.7-3.5,2.4-5.2,1.2c-1.7-1-2.4-3.5-1.2-5.2c1-1.7,3.5-2.4,5.2-1.2C819.4,477.7,820.1,480.2,818.8,481.9z
			 M835.1,455.4c-1,1.7-3.5,2.4-5.2,1.2c-1.7-1-2.4-3.5-1.2-5.2c1-1.7,3.5-2.4,5.2-1.2C835.6,451.2,836.1,453.7,835.1,455.4z
			 M856.3,389c-0.7-7.7-4.9-11.2-10.3-11c-5.4,0.2-6.5,0.7-15.3,1.7c-7.1,0.9-13.4,2.4-13.9,6.5c-0.7,4,2.6,5.9,8,9.6
			c5.4,3.7,16.7,11,16.7,11c-7.8,2.1-16.6,4.5-22.8,6.3c-4.7,1.4-6.5,1.7-7.1,5.8c-0.7,3.8,3.1,5.9,6.3,7.7c3,1.6,7.1,3.5,16,7.8
			c8,4,13.1,1.6,16.4-6.8C853.7,419,857.2,396.8,856.3,389z M842.4,425.8c-2.1-0.3-3.5-2.3-3.1-4.4c0.3-2.1,2.3-3.5,4.4-3.1
			s3.5,2.3,3.1,4.4S844.5,426.1,842.4,425.8z M847.3,395.1c-2.1-0.3-3.5-2.3-3.1-4.4s2.3-3.5,4.4-3.1c2.1,0.3,3.5,2.3,3.1,4.4
			C851.3,394,849.3,395.4,847.3,395.1z M818.8,322.5c-6.3,3.5-11.3,7.3-10.5,11.3c0.9,4,4.7,4.5,11,5.9c6.5,1.4,19.7,3.8,19.7,3.8
			c-6.5,4.9-13.6,10.5-18.7,14.6c-3.8,3.1-5.2,4-4.4,8c0.9,3.8,5.2,4.2,8.7,4.5c3.3,0.3,8,0.3,17.8,1c9.1,0.5,12.7-3.5,12.6-12.6
			c-0.2-9.1-5.4-30.9-9.2-37.8c-3.7-6.8-8.7-8.5-13.8-6.3C827.2,317.3,826.5,318.2,818.8,322.5z M845.3,353.2
			c2.1-0.5,4.2,0.7,4.5,2.8c0.5,2.1-0.7,4.2-2.8,4.5c-2.1,0.5-4.2-0.7-4.5-2.8C842,355.8,843.2,353.8,845.3,353.2z M838,323.1
			c2.1-0.5,4.2,0.7,4.5,2.8c0.5,2.1-0.7,4.2-2.8,4.5c-2.1,0.5-4.2-0.7-4.5-2.8C834.7,325.7,835.9,323.6,838,323.1z M780.7,289.1
			c2.4,3.3,5.9,2.3,12.4,1.2c6.5-1.2,19.5-4,19.5-4c-4,7-8.5,14.8-11.7,20.6c-2.4,4.4-3.3,5.8-0.9,9.1c2.3,3.1,6.5,1.9,9.9,0.9
			c3.3-0.9,7.5-2.6,16.9-5.8c8.5-3,10.5-8.2,6.8-16.4c-3.7-8.4-16.9-26.3-23-31.4c-5.9-4.9-11.3-4.5-15-0.5c-3.7,4-4,5.1-9.6,12
			C781.7,280.2,778.4,285.8,780.7,289.1z M822.3,292.9c1.7-1.2,4-0.9,5.4,0.9c1.2,1.7,0.9,4-0.9,5.4c-1.7,1.2-4.2,0.9-5.4-0.9
			C820.2,296.4,820.6,294.1,822.3,292.9z M804,267.8c1.7-1.2,4-0.9,5.4,0.9c1.2,1.7,0.9,4-0.9,5.4c-1.7,1.2-4,0.9-5.4-0.9
			C801.9,271.5,802.3,269,804,267.8z M736.9,258.2c3.5,2.1,6.5-0.2,12-3.7c5.6-3.5,16.6-11.2,16.6-11.2c-1,8-2.1,16.9-2.8,23.5
			c-0.5,4.9-0.9,6.6,2.6,8.7c3.3,2.1,6.6-0.7,9.4-3c2.6-2.1,5.9-5.4,13.3-11.9c6.8-5.9,6.5-11.5,0-17.8c-6.6-6.3-25.6-18-33.3-20.2
			c-7.3-2.3-12.2,0.2-14.1,5.2c-1.9,5.1-1.7,6.3-4.2,14.8C734.3,249.7,733.4,256.1,736.9,258.2z M776.6,245.8c1-1.7,3.5-2.4,5.2-1.2
			c1.7,1,2.4,3.5,1.2,5.2c-1,1.7-3.5,2.4-5.2,1.2C776.1,250,775.6,247.6,776.6,245.8z M750.3,229.6c1-1.7,3.5-2.4,5.2-1.2
			c1.7,1,2.4,3.5,1.2,5.2c-1,1.7-3.5,2.4-5.2,1.2C749.8,233.8,749.1,231.5,750.3,229.6z M685.1,247.7c4,0.7,5.9-2.6,9.6-8
			c3.7-5.4,11-16.7,11-16.7c2.1,7.8,4.5,16.6,6.3,22.8c1.4,4.7,1.7,6.5,5.8,7.1c3.8,0.7,5.9-3.1,7.7-6.3c1.6-3,3.5-7.1,7.8-16
			c4-8,1.6-13.1-6.8-16.4c-8.5-3.3-30.5-6.8-38.5-5.9c-7.7,0.7-11.2,4.9-11,10.3c0.2,5.4,0.7,6.5,1.7,15.3
			C679.5,240.8,681.1,247.1,685.1,247.7z M721.5,217.8c2.1,0.3,3.5,2.3,3.1,4.4c-0.3,2.1-2.3,3.5-4.4,3.1c-2.1-0.3-3.5-2.3-3.1-4.4
			C717.5,218.8,719.5,217.4,721.5,217.8z M690.9,212.9c2.1,0.3,3.5,2.3,3.1,4.4c-0.3,2.1-2.3,3.5-4.4,3.1c-2.1-0.3-3.5-2.3-3.1-4.4
			C686.9,214.1,688.8,212.7,690.9,212.9z M621.5,245.8c3.5,6.3,7.3,11.3,11.3,10.5c4-0.9,4.5-4.7,5.9-11c1.4-6.5,3.8-19.7,3.8-19.7
			c4.9,6.5,10.5,13.6,14.6,18.7c3.1,3.8,4,5.2,8,4.4c3.8-0.9,4.2-5.2,4.5-8.7c0.3-3.3,0.3-8,1-17.8c0.5-9.1-3.5-12.7-12.6-12.6
			c-9.1,0.2-30.9,5.4-37.8,9.2c-6.8,3.7-8.5,8.7-6.3,13.8C616.2,237.3,617.1,238,621.5,245.8z M655.1,214.6c2.1-0.5,4.2,0.7,4.5,2.8
			c0.5,2.1-0.7,4.2-2.8,4.5c-2.1,0.5-4.2-0.7-4.5-2.8C651.8,217.2,653,215.1,655.1,214.6z M625,221.9c2.1-0.5,4.2,0.7,4.5,2.8
			c0.5,2.1-0.7,4.2-2.8,4.5c-2.1,0.5-4.2-0.7-4.5-2.8C621.6,224.6,622.9,222.5,625,221.9z M561.5,268.8c4,3.7,5.1,4,12,9.6
			c5.6,4.4,11.2,7.7,14.5,5.4c3.3-2.4,2.3-5.9,1.2-12.4c-1.2-6.5-4-19.5-4-19.5c7,4.2,14.8,8.5,20.6,11.7c4.4,2.4,5.8,3.3,9.1,0.9
			c3.1-2.3,1.9-6.5,0.9-9.9c-0.9-3.3-2.6-7.5-5.8-16.9c-3-8.5-8.2-10.5-16.4-6.8c-8.4,3.7-26.3,16.9-31.4,23
			C557.1,259.8,557.7,265.2,561.5,268.8z M592.7,236.9c1.7-1.2,4-0.9,5.4,0.9c1.2,1.7,0.9,4.2-0.9,5.4c-1.7,1.2-4.2,0.9-5.4-0.9
			C590.6,240.6,591,238.2,592.7,236.9z M567.6,255.1c1.7-1.2,4-0.9,5.4,0.9c1.2,1.7,0.9,4.2-0.9,5.4s-4,0.9-5.4-0.9
			C565.5,258.7,565.9,256.5,567.6,255.1z M527,324.1c5.1,1.9,6.3,1.7,14.8,4.2c7,1.9,13.3,3,15.3-0.5c2.1-3.5-0.2-6.5-3.7-12
			c-3.5-5.6-11.2-16.6-11.2-16.6c8,1,16.9,2.1,23.5,2.8c4.9,0.5,6.6,0.9,8.7-2.6c2.1-3.3-0.7-6.6-3-9.4c-2.1-2.6-5.4-5.9-11.9-13.3
			c-5.9-6.8-11.5-6.5-17.8,0c-6.3,6.6-18,25.6-20.2,33.3C519.5,317.3,521.9,322.2,527,324.1z M543.5,282.6c1-1.7,3.5-2.4,5.2-1.2
			c1.7,1,2.4,3.5,1.2,5.2c-1,1.7-3.5,2.4-5.2,1.2C543,286.8,542.5,284.4,543.5,282.6z M527.3,309.1c1-1.7,3.5-2.4,5.2-1.2
			c1.7,1,2.4,3.5,1.2,5.2c-1,1.7-3.5,2.4-5.2,1.2C526.8,313.1,526.3,310.9,527.3,309.1z M518.1,386c5.4-0.2,6.5-0.7,15.3-1.7
			c7.1-0.9,13.4-2.4,13.9-6.5c0.7-4-2.6-5.9-8-9.6c-5.4-3.7-16.7-11-16.7-11c7.8-2.1,16.6-4.5,22.8-6.3c4.7-1.4,6.5-1.7,7.1-5.8
			c0.7-3.8-3.1-5.9-6.3-7.7c-3-1.6-7.1-3.5-16-7.8c-8-4-13.1-1.6-16.4,6.8c-3.3,8.4-6.8,30.5-5.9,38.5
			C508.5,382.7,512.7,386.2,518.1,386z M521.7,338.2c2.1,0.3,3.5,2.3,3.1,4.4c-0.3,2.1-2.3,3.5-4.4,3.1c-2.1-0.3-3.5-2.3-3.1-4.4
			C517.7,339.3,519.7,337.9,521.7,338.2z M512.7,371.9c0.3-2.1,2.3-3.5,4.4-3.1c2.1,0.3,3.5,2.3,3.1,4.4s-2.3,3.5-4.4,3.1
			C513.7,376.1,512.3,374,512.7,371.9z M545.5,441.4c6.3-3.5,11.3-7.3,10.5-11.3c-0.9-4-4.7-4.5-11-5.9c-6.5-1.4-19.7-3.8-19.7-3.8
			c6.5-4.9,13.6-10.5,18.7-14.6c3.8-3.1,5.2-4,4.4-8c-0.9-3.8-5.2-4.2-8.7-4.5c-3.3-0.3-8-0.3-17.8-1c-9.1-0.5-12.7,3.5-12.6,12.6
			c0.2,9.1,5.4,30.9,9.2,37.8c3.7,6.8,8.7,8.5,13.8,6.3C536.9,446.7,537.8,445.8,545.5,441.4z M519,410.8c-2.1,0.5-4.2-0.7-4.5-2.8
			c-0.5-2.1,0.7-4.2,2.8-4.5c2.1-0.5,4.2,0.7,4.5,2.8C522.3,408.1,521.1,410.2,519,410.8z M526.3,440.8c-2.1,0.5-4.2-0.7-4.5-2.8
			c-0.5-2.1,0.7-4.2,2.8-4.5c2.1-0.5,4.2,0.7,4.5,2.8C529.6,438.3,528.4,440.2,526.3,440.8z M583.5,474.9c-2.4-3.3-5.9-2.3-12.4-1.2
			c-6.5,1.2-19.5,4-19.5,4c4-7,8.5-14.8,11.7-20.6c2.4-4.4,3.3-5.8,0.9-9.1c-2.3-3.1-6.5-1.9-9.9-0.9c-3.3,0.9-7.5,2.6-16.9,5.8
			c-8.5,3-10.5,8.2-6.8,16.4c3.7,8.4,16.9,26.3,23,31.4c5.9,4.9,11.3,4.5,15,0.5c3.7-4,4-5.1,9.6-12
			C582.6,483.6,585.9,478.1,583.5,474.9z M542,471.1c-1.7,1.2-4,0.9-5.4-0.9c-1.2-1.7-0.9-4,0.9-5.4c1.7-1.2,4-0.9,5.4,0.9
			C544.1,467.4,543.7,469.9,542,471.1z M560.3,496.2c-1.7,1.2-4,0.9-5.4-0.9c-1.2-1.7-0.9-4.2,0.9-5.4c1.7-1.2,4.2-0.9,5.4,0.9
			C562.2,492.5,561.8,494.8,560.3,496.2z M627.4,505.6c-3.5-2.1-6.5,0.2-12,3.7c-5.6,3.5-16.6,11.2-16.6,11.2c1-8,2.1-16.9,2.8-23.5
			c0.5-4.9,0.9-6.6-2.6-8.7c-3.3-2.1-6.6,0.7-9.4,3c-2.6,2.1-5.9,5.4-13.3,11.9c-6.8,5.9-6.5,11.5,0,17.8c6.6,6.3,25.6,18,33.3,20.2
			c7.3,2.3,12.2-0.2,14.1-5.2c1.9-5.1,1.7-6.3,4.2-14.8C630,514.2,630.9,507.9,627.4,505.6z M587.5,518.2c-1,1.7-3.5,2.4-5.2,1.2
			c-1.7-1-2.4-3.5-1.2-5.2c1-1.7,3.5-2.4,5.2-1.2C588,514,588.7,516.2,587.5,518.2z M614,534.2c-1,1.7-3.5,2.4-5.2,1.2
			c-1.7-1-2.4-3.5-1.2-5.2c1-1.7,3.5-2.4,5.2-1.2C614.5,530,615,532.5,614,534.2z"/>
		<g>
			<path class="st0" d="M634.4,503.9c14.3,5.4,30,8.4,46.2,8.4c9.4,0,18.7-1,27.4-3c-17.1-1.2-33.3-5.8-47.9-12.9L634.4,503.9z"/>
			<path class="st0" d="M618.9,463.8l-36.3,4.4c4.9,5.6,10.1,10.6,15.9,15.2l32.8-6.5C626.9,472.7,622.7,468.3,618.9,463.8z"/>
			<path class="st0" d="M635.9,480.7l-32.4,6.5c7.3,5.4,15.3,10.1,23.7,13.8l26.8-7.7C647.6,489.6,641.5,485.4,635.9,480.7z"/>
			<path class="st0" d="M593.1,411.8h-39.6c2.1,8.7,4.9,16.9,8.5,24.8l39.2-0.9C597.8,428,595,420,593.1,411.8z"/>
			<path class="st0" d="M603.5,440.4l-39.1,0.9c4.2,8,9.1,15.5,14.6,22.5l36.4-4.4C610.8,453.5,606.8,447,603.5,440.4z"/>
			<path class="st0" d="M707.6,256.1V254c-8.7-1.9-17.8-2.8-27-2.8c-9.1,0-17.8,0.9-26.3,2.6l25.6,7.3
				C688.8,258.4,698,256.6,707.6,256.1z"/>
			<path class="st0" d="M604.2,323.4l-38.4-4.5c-4.5,8.4-8.2,17.1-10.8,26.3l39.6,1.6C597.2,338.8,600.4,330.9,604.2,323.4z"/>
			<path class="st0" d="M621,299.2l-36.1-6.5c-6.3,6.6-11.7,13.9-16.4,21.8l38.2,4.5C610.8,311.9,615.7,305.3,621,299.2z"/>
			<path class="st0" d="M589.6,382.7c0-0.3,0-0.9,0-1.2h-39.8c0,0.2,0,0.2,0,0.3c0,8.7,0.9,17.1,2.4,25.3h39.6
				C590.4,399.1,589.6,391.1,589.6,382.7z"/>
			<path class="st0" d="M593.4,351.7l-39.6-1.6c-2.1,8.5-3.5,17.4-3.8,26.7h39.8C590.3,368,591.5,359.7,593.4,351.7z"/>
			<path class="st0" d="M672,263.8l-27-7.7c-10.1,2.8-19.9,7-28.8,12l33.5,6.8C656.7,270.4,664.2,266.8,672,263.8z"/>
			<path class="st0" d="M644.1,278.4l-33.8-6.8c-7.7,4.9-14.8,10.6-21.3,16.9l35.7,6.5C630.7,288.9,637.2,283.3,644.1,278.4z"/>
			<path class="st0" d="M766.4,367c0.9,3,2.1,6.6,2.6,10.1h42.2c-0.3-8.7-1.4-17.3-3.3-25.5h-51.1
				C761.3,357.1,764.8,362.1,766.4,367z"/>
			<path class="st0" d="M743.5,337.9c3.1,3.1,6.1,6.1,8.7,9.1h54.2c-2.4-8.5-5.6-16.7-9.6-24.6h-71.3
				C732.2,327.6,739,333.4,743.5,337.9z"/>
			<path class="st0" d="M721,480.8h44.5c4.9-4.2,9.2-8.5,13.4-13.4h-58.1v13.4H721z"/>
			<path class="st0" d="M721,500.2h14.5c8.7-4,16.7-8.9,24.2-14.6H721L721,500.2L721,500.2z"/>
			<path class="st0" d="M757.1,393.3c-11.5,2.4-27.4,2.6-36.1,2.6v12.4h87.5c1.7-8.5,2.6-17.3,2.6-26.3H769
				C768.4,386.9,765.5,391.4,757.1,393.3z"/>
			<path class="st0" d="M721,436.6h78.1c3.5-7.5,6.3-15.5,8.4-23.7H721L721,436.6L721,436.6z"/>
			<path class="st0" d="M712.3,312.3c1.9,1.4,4.5,3.3,7.3,5.6h74.8c-3.8-6.8-8.4-13.4-13.3-19.4h-68.7v13.8H712.3z"/>
			<path class="st0" d="M667.2,298.8c-1.2,0.2-2.3,0.5-3.1,0.7c-9.9,2.1-37.7,7.5-37.7,7.5l36.3,17.3c-1.7-3-2.6-6.5-2.6-10.1
				C659.8,308.2,662.6,302.7,667.2,298.8z"/>
			<path class="st0" d="M712.3,260.1V272h39.1c-7-4.5-14.3-8.4-22.1-11.5c-3.8-0.3-7.7-0.5-11.7-0.5
				C716,260,714.2,260.1,712.3,260.1z"/>
			<path class="st0" d="M664.5,314.5c0,8.5,7,15.5,15.5,15.5s15.5-7,15.5-15.5s-7-15.5-15.5-15.5C671.5,299,664.5,306,664.5,314.5z"
				/>
			<path class="st0" d="M758.3,276.9h-44.1h-1.7v3.5v13.3h64.7C771.2,287.3,765.1,281.7,758.3,276.9z"/>
			<path class="st0" d="M723.3,441.3H721v1v20.4h61.9c5.2-6.6,9.9-13.9,13.9-21.4L723.3,441.3L723.3,441.3z"/>
			<path class="st0" d="M721,390c9.2,0,24.1-0.2,30-1.4c5.8-1,9.9-3.3,11.9-7c0.7-1.4,1-3,1-4.7c0-2.4-0.7-5.2-2.3-8.4
				c-3.7-7.8-7.5-12.7-11.5-17.1c-1.6-1.6-3.1-3.1-4.7-4.7c-1.7-1.7-3.7-3.5-5.4-5.4c-4.5-4.7-14.8-13.1-22.5-19.2
				c-1.9-1.4-3.5-2.8-5.1-3.8c-2.8-2.3-4.7-3.7-4.7-3.7v-28.2c-1.2,1-3.1,2.3-5.8,3.1c-2.8,1-9.6,3-16.9,4.7
				c8.9,2.1,15.5,10.1,15.5,19.7c0,7.7-4.4,14.5-10.8,18l-0.7,9.9l-69.2-33.1c-2.6,3.5-4.9,7-7.1,10.6l2.1,0.2l-0.5,5.1l-4.2-0.5
				c-3.8,7.3-7.1,15-9.4,23l4.9,0.2l-0.2,4.7l-6.1-0.2c-2.1,8-3.3,16.2-3.7,24.8c0,1.6-0.2,3.1-0.2,4.7c0,0.2,0,0.3,0,0.7
				c0,8.5,0.9,16.9,2.6,24.9c0.3,1.6,0.7,3.1,1,4.7c2.1,8.2,5.1,16.2,8.7,23.7c0.3,0.9,0.9,1.6,1.2,2.4c3.8,7.3,8.2,14.1,13.4,20.6
				c1.2,1.4,2.4,3,3.7,4.4c4,4.4,8.2,8.5,12.7,12.4c1.6,1.4,3.1,2.6,4.9,3.8c5.8,4.4,12,8.4,18.7,11.7c2.1,1,4.4,2.1,6.5,3.1
				c9.8,4.2,20,7.3,31,8.9c5.4,0.9,10.8,1.2,16.4,1.2V500v-14.6v-4.7v-13.1v-4.7v-20c-1.6,0-3.5,0.2-5.4,0.2
				c-7.5,0-17.4,0.2-29.1-2.4s-22-9.1-25.6-12c-3.7-3-1-3.5-0.3-4c0.7-0.7,2.6-1.6,6.1,1.2c3.5,2.8,7.5,6.5,23,10.1
				c11.9,2.8,13.1,1.6,26,2.1h1l4.4-0.2v-1v-40.8v-5.6v-10.8h4.7L721,390L721,390z M689.3,362.8c0.2,1.2,0,2.1-0.7,3
				c-0.5,0.7-1.4,1-2.4,1c-1,0-1.9-0.2-2.8-0.9c-0.9-0.7-1.4-1.6-1.7-2.8c-0.2-1.2,0-2.1,0.7-3c0.5-0.7,1.4-1,2.4-1s1.9,0.2,2.8,0.9
				C688.4,360.7,688.9,361.6,689.3,362.8z M678,351.3c0.3-0.9,0.9-1.6,1.7-1.9c0.9-0.3,1.7-0.5,2.6-0.2c1,0.3,1.9,1,2.4,2.1
				c0.7,1,0.9,2.1,0.5,3.1c-0.2,0.9-0.9,1.6-1.7,1.9c-0.9,0.3-1.7,0.5-2.6,0.2c-1-0.3-1.9-1-2.4-2.1
				C678,353.4,677.8,352.4,678,351.3z M671,341.9c0.5-0.9,1.2-1.2,2.1-1.4c1-0.2,2.1,0.2,3,0.9c1,0.7,1.6,1.7,1.7,2.8
				c0.2,0.9,0,1.7-0.5,2.6c-0.5,0.7-1.2,1.2-2.1,1.4c-1,0.2-2.1-0.2-3-0.9c-1-0.7-1.6-1.7-1.7-2.8
				C670.1,343.6,670.3,342.8,671,341.9z M661.7,336.1c0.9-0.5,1.7-0.7,3-0.3c1.2,0.3,2.1,0.9,2.6,1.9c0.5,0.9,0.7,1.7,0.5,2.8
				c-0.2,1-0.5,1.7-1.2,2.3c-0.9,0.5-1.7,0.7-3,0.3c-1.2-0.3-2.1-1-2.6-1.9s-0.7-1.7-0.5-2.8C660.5,337.4,660.9,336.7,661.7,336.1z
				 M617.3,355.1c0.7-0.9,1.4-1.4,2.4-1.4c0.9,0,1.9,0.3,2.6,0.9c0.9,0.7,1.4,1.4,1.7,2.4s0.2,2.1-0.5,3s-1.4,1.4-2.4,1.4
				c-0.9,0-1.9-0.3-2.6-1c-0.9-0.7-1.4-1.4-1.7-2.4C616.4,357.1,616.6,356,617.3,355.1z M612.4,363.9c0.5-1,1.2-1.7,2.1-1.9
				c0.9-0.2,1.7,0,2.8,0.5c0.9,0.5,1.6,1.2,2.1,2.1c0.5,1,0.5,2.1,0,3.1c-0.5,1-1.2,1.6-2.1,1.9c-0.9,0.2-1.7,0-2.8-0.5
				c-0.9-0.5-1.6-1.2-2.1-2.1C611.9,365.8,611.9,364.9,612.4,363.9z M609.3,373.6c0.2-1,0.7-1.9,1.7-2.3c0.9-0.3,1.7-0.3,2.8-0.2
				c1,0.3,1.7,0.9,2.4,1.7s0.9,1.9,0.7,3.1c0,0.2-0.2,0.3-0.3,0.7c-0.3,0.7-0.7,1.4-1.4,1.7c-0.9,0.3-1.7,0.3-2.8,0.2
				c-1-0.3-1.7-0.9-2.4-1.7l0,0C609.3,375.7,609.1,374.7,609.3,373.6z M608.7,384.6c-0.2-1.2,0.2-2.1,0.9-2.8
				c0.2-0.2,0.5-0.3,0.7-0.3c0.5-0.2,1-0.3,1.7-0.3c0.5,0,1,0.2,1.6,0.3c0.3,0.2,0.9,0.3,1.2,0.7c0.9,0.7,1.4,1.7,1.4,3
				c0.2,1.2-0.2,2.1-0.9,2.8c-0.7,0.5-1.6,0.9-2.4,0.9c-1,0-1.9-0.3-2.6-1C609.3,386.7,608.7,385.8,608.7,384.6z M613.6,398.6
				c-1-0.5-1.7-1.2-2.3-2.4c-0.5-1.2-0.5-2.1,0-3c0.3-0.9,1-1.4,1.9-1.6c0.9-0.3,1.9-0.2,2.8,0.2c1,0.5,1.7,1.2,2.3,2.4
				c0.5,1.2,0.5,2.1,0,3.1c-0.3,0.9-1,1.4-1.9,1.6C615.5,399.1,614.7,398.9,613.6,398.6z M624.1,407.4c-0.2,0.2-0.5,0.3-0.9,0.5
				c-0.5,0.2-1,0.3-1.6,0.3c-1,0-1.9-0.5-3-1.4l0,0c-0.9-0.9-1.4-1.9-1.4-2.8s0.3-1.7,1-2.4s1.4-1,2.4-1c1,0,1.9,0.5,3,1.4
				c0.9,0.9,1.4,1.9,1.4,3C625.1,405.9,624.8,406.8,624.1,407.4z M625.5,351.3c-0.7-0.9-1-1.7-1.2-2.6c0-1,0.3-1.9,1.2-2.6
				c0.9-0.7,1.7-1,2.8-0.9c0.9,0.2,1.7,0.7,2.4,1.4c0.7,0.9,1,1.7,1.2,2.6c0,1-0.3,1.9-1.2,2.6s-1.7,1-2.8,0.9
				C627.1,352.7,626.2,352.2,625.5,351.3z M634.2,412.5c-0.3,0.9-0.9,1.6-1.6,1.9c-0.9,0.5-1.9,0.3-3,0c-1.2-0.5-1.9-1.2-2.4-2.3
				c-0.3-0.9-0.5-1.7-0.2-2.8c0.3-0.9,0.9-1.6,1.6-1.9c0.9-0.5,1.9-0.3,3,0c1.2,0.5,1.9,1.2,2.4,2.3
				C634.4,410.6,634.6,411.5,634.2,412.5z M634.9,347.3c-0.9-0.3-1.7-1-2.3-1.9s-0.9-1.7-0.7-2.8c0.2-1,0.7-1.7,1.6-2.4
				c1-0.5,1.9-0.7,3-0.2c0.9,0.3,1.7,1,2.3,1.9c0.5,0.9,0.9,1.7,0.7,2.8c-0.2,1-0.7,1.7-1.6,2.4
				C636.8,347.6,635.8,347.6,634.9,347.3z M644,416.2c-0.7,0.7-1.6,1-2.8,1c-1.2,0-2.1-0.5-3-1.4c-0.7-0.7-1-1.6-1-2.6
				c0-1,0.2-1.9,0.7-2.6c0.7-0.7,1.6-1,2.8-1s2.1,0.5,3,1.4c0.7,0.7,1,1.6,1.2,2.6C644.7,414.6,644.5,415.5,644,416.2z M642.7,343.3
				c-0.9-0.5-1.6-1.2-1.9-2.3c-0.3-1-0.5-1.9-0.2-2.8c0.3-0.9,1-1.6,2.1-1.9c1-0.3,2.1-0.2,3.1,0.3c0.9,0.5,1.6,1.2,1.9,2.3
				c0.3,1,0.5,1.9,0.2,2.8c-0.3,0.9-1,1.6-2.1,1.9C644.7,344,643.6,343.8,642.7,343.3z M654.4,414.6c-0.3,0.9-1.2,1.6-2.3,1.7
				c-1,0.2-2.1,0-3.1-0.5c-0.9-0.5-1.4-1.4-1.7-2.4c-0.3-1-0.3-1.9,0-2.8s1.2-1.6,2.3-1.7c1.2-0.2,2.1,0,3.1,0.5
				c0.9,0.5,1.4,1.4,1.7,2.4C654.8,412.9,654.8,413.7,654.4,414.6z M654.4,342.1c-1.2,0-2.1-0.3-3-1c-0.7-0.7-1.2-1.6-1.4-2.6
				c-0.2-1,0-1.9,0.5-2.6c0.5-0.9,1.4-1.2,2.6-1.2s2.1,0.3,3,1c0.7,0.7,1.2,1.6,1.4,2.6c0.2,1,0,1.9-0.5,2.6
				C656.5,341.5,655.6,342.1,654.4,342.1z M661.9,413c-1,0.5-2.1,0.5-3,0c-0.9-0.3-1.6-1-2.1-2.1c-0.5-0.9-0.7-1.9-0.5-2.8
				c0.2-1,0.9-1.7,1.7-2.3c1-0.5,2.1-0.5,3,0c0.9,0.3,1.6,1,2.1,2.1c0.5,0.9,0.7,1.9,0.5,2.8C663.5,411.8,662.8,412.5,661.9,413z
				 M670.3,408c-0.9,0.7-1.9,0.9-3,0.5c-0.9-0.2-1.7-0.7-2.4-1.6c-0.7-0.9-1-1.7-1-2.6c0-1,0.3-1.9,1.4-2.6c0.9-0.7,1.9-0.9,3-0.5
				c0.9,0.2,1.7,0.9,2.4,1.6c0.7,0.9,1,1.7,1,2.6C671.7,406.4,671.2,407.3,670.3,408z M677.4,401.3c-0.7,0.9-1.6,1.2-2.6,1
				c-0.9,0-1.7-0.5-2.6-1.2c-0.9-0.7-1.2-1.6-1.4-2.6c-0.2-1,0.2-1.9,0.9-2.8s1.6-1.2,2.6-1c0.9,0,1.7,0.5,2.6,1.2
				c0.9,0.7,1.2,1.6,1.4,2.6C678.5,399.6,678.1,400.5,677.4,401.3z M683.2,393.5c-0.5,0.9-1.4,1.4-2.4,1.6c-0.9,0-1.9-0.2-2.8-0.9
				c-0.9-0.7-1.6-1.4-1.7-2.3c-0.3-1-0.2-2.1,0.3-3c0.5-1,1.4-1.6,2.4-1.6c0.9,0,1.9,0.2,2.8,0.9s1.6,1.4,1.7,2.3
				C683.9,391.6,683.9,392.6,683.2,393.5z M687.6,384.4c-0.3,1-1,1.7-1.9,2.1c-0.9,0.2-1.7,0.2-2.8-0.3c-1-0.5-1.7-1-2.1-1.9
				c-0.5-1-0.7-1.9-0.2-3.1c0.3-1,1-1.7,1.9-2.1c0.9-0.2,1.7-0.2,2.8,0.3c1,0.5,1.7,1,2.1,1.9C687.9,382.3,687.9,383.2,687.6,384.4z
				 M688.2,376.6c-0.7,0.5-1.7,0.5-2.6,0.3c-1-0.2-1.9-0.7-2.4-1.6c-0.7-0.9-1-1.9-0.9-3c0.2-1.2,0.5-1.9,1.4-2.4
				c0.7-0.5,1.7-0.5,2.6-0.3c1,0.2,1.9,0.7,2.4,1.6c0.7,0.9,1,1.9,0.9,3C689.6,375.4,689.1,376.1,688.2,376.6z"/>
			<path class="st0" d="M688.4,263.6c-3,0.7-5.8,1.6-8.5,2.4c-8,2.6-15.7,6.1-22.8,10.1c-2.1,1.2-4,2.4-5.9,3.7
				c-7.3,4.7-13.9,10.1-20,16.4c-1.4,1.4-2.6,2.8-3.8,4.2c-0.7,0.7-1.4,1.6-2.1,2.3c2.1-0.3,4.5-0.9,7.5-1.4
				c1.2-0.2,2.4-0.5,3.8-0.7c7.5-1.4,16.4-3.1,25.8-5.1c39.9-8,41-9.4,45.5-14.8v-4V272v-11.7C701.2,261,694.7,262,688.4,263.6z"/>
		</g>
		<path class="st0" d="M539.2,51.6l-20.9,9.2l1.7-24.8L539.2,51.6z"/>
	</g>
	<g>
		<path class="st2" d="M366.2,402.2l-1.6-20.9l18.3-1.4c1,0,1.9,0,2.4,0.5c0.5,0.3,0.9,1,0.9,1.9c0,0.7,0,1.4-0.3,1.7
			s-0.9,0.7-1.9,1.2c-3.8,1.6-6.8,3.8-8.7,6.5c-1.9,2.8-3,6.1-3,10.3L366.2,402.2z M366.6,406.8l71-5.2l1.7,23l0.2,1.4
			c0.2,1.2,0,2.3-0.5,3c-0.3,0.7-1,1-1.9,1.2c-1.4,0.2-2.4-0.5-3-1.9c-0.5-1-0.7-1.7-0.9-1.9c-0.2-0.2-0.3-0.3-0.7-0.5
			c-0.5-0.3-1.6-0.5-2.6-0.3l-52,3.8c-1.2,0.2-2.1,0.3-2.6,0.9c-0.3,0.2-0.5,0.5-0.5,0.7c0,0.2-0.2,0.9-0.5,2.1
			c-0.3,1.4-1.2,2.1-2.6,2.3c-0.9,0-1.6-0.2-2.1-0.9s-0.9-1.6-0.9-2.8l-0.2-1.4L366.6,406.8z M404.1,399.6l-6.1,0.5
			c-1-1.9-2.3-3.3-3.5-4.2c-1.2-0.9-2.8-1.6-4.7-1.7c-1.4-0.2-2.3-0.5-2.8-0.9s-0.9-1-0.9-1.9c0-1,0.3-1.9,1-2.4
			c0.3-0.3,1.4-0.5,3-0.5l19.9-1.4c1.6-0.2,2.8,0,3.5,0.3c0.7,0.3,1,1,1,1.9s-0.2,1.4-0.5,1.9c-0.5,0.5-1.2,0.9-2.4,1.2
			c-2.4,0.7-4.2,1.7-5.4,3C405.1,396.3,404.2,397.9,404.1,399.6z M437.2,396.8l-5.6,0.3c-0.5-2.3-1.2-4-1.9-5.4
			c-0.7-1.4-1.7-2.8-3.1-4.2c-1.4-1.4-2.8-2.4-4.2-3.3c-1.4-0.7-3.3-1.6-5.6-2.1c-1.2-0.3-1.9-0.7-2.3-1s-0.7-0.9-0.7-1.7
			c0-1,0.2-1.7,0.7-2.1c0.5-0.3,1.6-0.7,3-0.9l18.3-1.4L437.2,396.8z"/>
		<path class="st2" d="M371.8,322.2l69.7,14.3l-4.7,22.8l-0.3,1.4c-0.2,1.2-0.7,2.1-1.2,2.6s-1.4,0.7-2.1,0.5
			c-1.4-0.3-2.1-1.2-2.3-2.6c-0.2-1.2-0.2-1.9-0.3-2.1c0-0.2-0.2-0.5-0.5-0.7c-0.5-0.5-1.2-0.9-2.4-1.2l-51.1-10.5
			c-1.2-0.2-2.1-0.2-2.8,0c-0.3,0.2-0.5,0.3-0.7,0.5c-0.2,0.2-0.5,0.7-1,1.7c-0.7,1.2-1.7,1.7-3.1,1.4c-0.9-0.2-1.4-0.7-1.7-1.4
			c-0.3-0.7-0.3-1.7-0.2-3l0.3-1.4L371.8,322.2z M429,323.2l-40.3-8.2c-2.4-0.5-4.5-0.5-6.1-0.2c-1,0.2-1.9,0.7-2.4,1.2
			c-0.5,0.5-1.2,1.6-1.7,2.8l-5.8-1.2c0.3-1.7,0.7-3.3,1.2-4.5c1.4-4.2,4-8,8-11.5c3.8-3.3,8.5-5.6,13.9-6.5
			c5.4-1,11.2-0.9,17.4,0.3c7,1.4,12.9,4,17.8,7.7c4.9,3.7,8.4,8.2,10.5,13.6c1,2.6,1.6,5.1,1.7,7.1c0.2,2.1-0.2,4.7-0.9,8l-5.6-1
			c0-1.6-0.2-2.6-0.3-3.1c-0.2-0.7-0.5-1.2-1.2-1.7c-0.7-0.7-1.4-1.2-2.3-1.6C432.1,323.9,430.7,323.6,429,323.2z"/>
		<path class="st2" d="M465.3,269l-9.9,21.1l-0.5,1.2c-0.5,1.2-1.2,1.9-1.9,2.3c-0.7,0.3-1.4,0.5-2.3,0c-1.2-0.5-1.9-1.6-1.6-3.1
			c0.2-1.2,0.2-1.9,0.2-2.1s-0.2-0.5-0.3-0.9c-0.3-0.7-1-1.2-2.1-1.7l-47.2-22.3c-1-0.5-1.9-0.7-2.6-0.5c-0.3,0-0.7,0.2-0.9,0.3
			c-0.2,0.2-0.7,0.7-1.6,1.6c-1,1-2.1,1.2-3.5,0.7c-0.9-0.3-1.2-1-1.4-1.7c-0.2-0.9,0-1.7,0.5-3l0.5-1.2l9.9-21.1l0.5-1.2
			c0.5-1.2,1.2-1.9,1.9-2.3c0.7-0.3,1.4-0.5,2.3,0c1.2,0.5,1.9,1.6,1.7,3.1c-0.2,1.2-0.2,1.9-0.2,2.1s0.2,0.5,0.3,0.9
			c0.3,0.7,1,1.2,2.1,1.7l47.2,22.3c1,0.5,1.9,0.7,2.6,0.5c0.3,0,0.7-0.2,0.9-0.3c0.2-0.2,0.7-0.7,1.6-1.6c1-1,2.1-1.2,3.5-0.7
			c0.9,0.3,1.2,1,1.4,1.7c0.2,0.9,0,1.7-0.5,3L465.3,269z"/>
		<path class="st2" d="M470.1,204l18,13.9c1,0.9,1.9,1.2,2.8,1.2c0.5,0,0.7,0,1-0.2c0.2-0.2,0.9-0.7,1.9-1.4c1.4-1,2.6-1,3.8-0.2
			c0.9,0.7,1,1.4,0.9,2.4c0,0.7-0.5,1.6-1.6,2.8l-1,1.4l-14.3,18.3l-1,1.4c-1,1.2-1.7,1.9-2.4,2.3c-1,0.3-1.9,0.3-2.6-0.3
			c-1.2-0.9-1.4-2.3-0.7-3.7c0.5-1.2,0.9-2.1,1-2.3c0-0.2,0-0.5,0-1c-0.2-0.7-0.7-1.6-1.7-2.4l-13.9-10.8l-36.8-10.1
			c-1.4-0.3-2.6-0.3-3.7,0c-1,0.3-1.7,0.5-2.3,0.5c-0.3,0-0.9-0.2-1.4-0.5c-1.4-1-1.4-2.8,0.3-4.7l15.7-20c0.9-1,1.6-1.7,2.1-1.9
			c1-0.3,1.7-0.2,2.6,0.3c0.9,0.7,1.2,1.6,1,2.8l-0.2,1.7c0,0.7,0.2,1.2,0.9,1.7c0.7,0.5,1.4,0.9,2.4,1L470.1,204z M467.5,199.3
			l-7.1-1.9l-6.3-11.9c-0.5-1-1.6-2.1-3-3.1c-1.6-1.2-3.5-1.2-5.4,0c-1.2,0.7-1.9,1-2.4,1s-1-0.2-1.7-0.7c-0.7-0.5-1-1.2-1-2.1
			c0-0.5,0.2-1,0.3-1.6s0.7-1.2,1.6-2.3l8-10.1c1.6-1.9,3-2.3,4.5-1c0.5,0.3,0.9,0.9,1,1.4c0.2,0.5,0,1.2-0.2,2.3
			c-0.5,1.7-0.5,3.3-0.5,4.4c0.2,1.6,0.7,3,1.4,4.4l1.4,2.6L467.5,199.3z"/>
		<path class="st2" d="M488.8,133.2l16.9-12.4l47.9,40.8c0.9,0.7,1.7,1.2,2.4,1.7c0.7,0.3,1.6,0.3,2.6,0c0.9-0.2,1.7-0.3,2.3-0.2
			c0.5,0.2,0.9,0.3,1.4,0.9c1,1.4,0.5,3-1.7,4.5l-20.9,15.3c-0.9,0.7-1.6,0.9-2.4,0.9c-0.9,0-1.4-0.3-1.9-1c-0.3-0.5-0.7-1-0.5-1.6
			c0-0.5,0.2-1.2,0.7-2.1c0.3-0.7,0.5-1.2,0.5-1.7c0-0.5-0.2-1-0.5-1.6s-0.7-0.9-1-1.2l-5.8-5.1l-11.7,8.5l-2.4-5.8l9.4-7
			l-33.3-28.2L488.8,133.2z M493.7,146.1l8.5,7.1l12.6,32.6c0.3,0.9,0.7,1.7,1.2,2.4c1.2,1.7,3.1,2.4,5.2,1.9l1.9-0.3
			c1.2-0.3,2.3,0.2,3,1c1,1.4,0.5,2.8-1.6,4.4l-10.6,7.8c-1,0.7-2.1,1.2-3,1.2s-1.7-0.3-2.3-1c-0.5-0.9-0.5-1.9,0.3-3.3
			c0.7-1.4,1.2-2.4,1.6-3.3c0.2-0.9,0.3-1.7,0.3-2.8c0-1.7-0.5-3.7-1.4-5.9L493.7,146.1z"/>
		<path class="st2" d="M594.1,79.7l20.2,68.2l-22.1,6.6l-1.2,0.3c-1.2,0.3-2.1,0.3-3,0.2c-0.7-0.2-1.2-0.9-1.6-1.6
			c-0.3-1.4,0-2.4,1.2-3.3c1-0.7,1.6-1,1.7-1.2c0.2-0.2,0.3-0.3,0.3-0.7c0.2-0.7,0.2-1.6-0.2-2.8l-14.8-50c-0.3-1.2-0.9-1.9-1.4-2.4
			c-0.3-0.2-0.5-0.3-0.7-0.3c-0.2,0-0.9,0-2.1-0.2c-1.4,0-2.4-0.7-2.8-2.1c-0.2-0.9-0.2-1.6,0.3-2.3c0.5-0.7,1.4-1.2,2.6-1.6
			l1.2-0.3L594.1,79.7z M598.6,78.3l20-5.9l5.2,17.8c0.3,1,0.3,1.9,0,2.4c-0.3,0.5-0.9,1-1.7,1.2c-0.7,0.2-1.4,0.2-1.7,0
			c-0.3-0.2-0.9-0.7-1.6-1.6c-2.4-3.5-5.2-5.9-8.2-7.1c-3.1-1.4-6.6-1.6-10.6-0.9L598.6,78.3z M609.1,114.7l-1.7-5.8
			c1.7-1.6,2.8-3,3.5-4.4c0.7-1.4,0.9-3,0.7-5.1c-0.2-1.4,0-2.3,0.3-3c0.3-0.7,0.9-1,1.6-1.2c1-0.3,1.9-0.2,2.6,0.5
			c0.3,0.3,0.7,1.4,1.2,2.8l5.6,19c0.5,1.6,0.5,2.6,0.3,3.3s-0.7,1.2-1.7,1.4c-0.7,0.2-1.4,0.2-2.1-0.2c-0.5-0.3-1.2-1-1.7-2.1
			c-1.2-2.1-2.6-3.7-4-4.5C612.4,115.1,610.8,114.7,609.1,114.7z M618.9,146.5l-1.6-5.4c2.1-1,3.7-1.9,4.9-3c1.2-1,2.4-2.4,3.5-4
			c1-1.6,1.7-3.3,2.3-4.9c0.5-1.6,0.7-3.5,0.9-5.9c0-1.2,0.2-2.1,0.5-2.4c0.3-0.5,0.7-0.9,1.4-1c0.9-0.3,1.7-0.2,2.3,0.2
			c0.5,0.5,1,1.4,1.4,2.8l5.2,17.6L618.9,146.5z"/>
		<path class="st2" d="M672.2,65.7l0.2,5.9c-2.1,0.7-3.8,1.6-4.9,3c-1,1.2-1.6,2.8-1.6,4.5c0,1.7,0.5,3.3,1.6,4.5
			c1,1.2,2.6,2.4,4.7,3.7c1.6,0.7,4.9,2.3,10.1,4.4c3.1,1.2,5.6,2.4,7.3,3.5c1.7,1,3.5,2.4,5.1,4c4.2,4.2,6.5,9.2,6.6,15.2
			c0.2,4.5-0.9,8.5-3,12.4c-2.1,3.8-5.1,6.8-8.9,9.1c-2.1,1.2-4.4,2.1-6.8,2.8c-2.4,0.7-4.7,1-7,1.2l-0.2-5.9c3-0.9,5.2-1.9,6.5-3.3
			c1.4-1.4,1.9-3.1,1.9-5.4c0-2.3-1.2-4.4-3.3-6.1c-1.4-1-4.2-2.4-8-4c-4.4-1.7-7.3-3-8.9-3.8c-1.6-0.7-3.1-1.6-4.7-2.6
			c-6.6-4.5-10.1-10.6-10.3-18.3c-0.2-4,0.5-7.7,2.1-11c1.6-3.3,3.7-6.1,6.6-8.4C661.2,68,666.3,66.3,672.2,65.7z M671.5,133.9
			l0.2,5.9c-2.8,0-6.1-0.7-9.6-2.3c-1.4-0.5-2.3-0.9-2.6-1c-0.5-0.2-1-0.2-1.4-0.2c-0.7,0-1.2,0.2-1.6,0.3c-0.3,0.2-0.9,0.9-1.6,1.7
			c-0.5,0.9-1.2,1.2-2.1,1.2c-1.9,0-3-1.4-3.1-4.4l-0.5-19c0-1,0.2-1.7,0.7-2.4c0.5-0.7,1.2-1,2.1-1c0.7,0,1.4,0.2,1.7,0.5
			c0.5,0.5,0.9,1.2,1.2,2.4c0.9,3,2.1,5.8,3.7,8.4c1.6,2.6,3.5,4.7,5.6,6.5C666.5,132.3,668.7,133.4,671.5,133.9z M676.6,71.7
			l-0.2-5.8c2.1,0,3.8,0.3,5.4,0.7c1.6,0.3,3.7,1,6.6,2.3c0.7,0.2,1.2,0.3,1.7,0.3c0.7,0,1.2-0.2,1.4-0.7l1-1.6
			c0.5-0.7,1.2-1.2,1.9-1.2c0.9,0,1.6,0.3,2.1,0.9c0.5,0.7,0.7,1.7,0.7,3.1l0.5,17.3c0,1-0.2,1.9-0.9,2.4c-0.5,0.7-1.2,1-2.3,1
			c-0.7,0-1.4-0.2-1.9-0.7c-0.3-0.3-0.5-0.5-0.9-1c-0.2-0.3-0.3-1-0.5-1.9c-0.3-1.7-1.2-3.5-2.1-5.2c-1-1.7-2.1-3.3-3.5-4.7
			C683.5,74.3,680.2,72.4,676.6,71.7z"/>
		<path class="st2" d="M757.1,75.7l-14.5,59.6c-0.3,1.4-0.3,2.3,0,3c0.2,0.3,0.3,0.7,0.5,0.9c0.2,0.2,0.9,0.5,2.1,1.2
			c1.6,0.7,2.1,1.9,1.7,3.3c-0.2,0.9-0.9,1.4-1.7,1.7c-0.7,0.2-1.9,0.2-3.3-0.2l-1.7-0.3l-22.7-5.6l-1.4-0.3
			c-1.2-0.3-2.1-0.7-2.6-1.4c-0.5-0.7-0.7-1.4-0.5-2.3c0.3-1.4,1.2-2.1,2.6-2.3c1.2-0.2,1.9-0.2,2.1-0.2c0.2,0,0.5-0.2,0.7-0.5
			c0.5-0.5,0.9-1.2,1.2-2.4L732,79.2c0.3-1.2,0.3-2.1,0-2.8c-0.2-0.3-0.3-0.5-0.5-0.7c-0.2-0.2-0.7-0.5-1.7-1.2
			c-1.2-0.7-1.7-1.9-1.4-3.3c0.2-0.9,0.7-1.4,1.4-1.7c0.7-0.3,1.7-0.3,3,0l1.4,0.3L757.1,75.7z M751,119.4l1.4-5.4
			c1.6,0,2.6-0.2,3.3-0.3c0.7-0.2,1.4-0.7,1.9-1.4c1-1.2,1.7-2.8,2.3-5.1l4-16.2c0.3-1.6,0.5-2.8,0.5-3.7c0-0.9-0.3-1.7-0.9-2.4
			c-0.7-1.2-1.9-2.1-3.5-2.8l1.4-5.4c7,1.7,12,3.7,15,5.8c3.5,2.4,5.9,5.6,7.3,9.2c1.6,3.8,1.7,8,0.5,12.7c-1.2,5.2-3.5,9.2-6.6,12
			s-6.8,4.4-11.3,4.9C762.5,121.5,757.5,121,751,119.4z"/>
		<path class="st2" d="M841.7,109.5L810.3,162c-0.7,1.2-1,2.1-0.9,3c0,0.5,0.2,0.7,0.3,1c0.2,0.2,0.7,0.9,1.7,1.7
			c1.2,1.2,1.4,2.4,0.7,3.8c-0.5,0.7-1.2,1.2-2.3,1.2c-0.9,0-1.9-0.3-3.1-1.2l-1.6-0.9l-20-12L784,158c-1-0.7-1.7-1.4-2.1-2.1
			c-0.3-0.7-0.3-1.6,0.2-2.3c0.7-1.2,1.7-1.7,3.1-1.4c1.2,0.2,1.9,0.3,2.1,0.3c0.2,0,0.5,0,0.9-0.2c0.7-0.3,1.2-0.9,1.9-1.9
			l26.8-44.8c0.7-1,0.9-1.9,0.9-2.6c0-0.3,0-0.7-0.2-0.9c-0.2-0.2-0.5-0.7-1.4-1.6c-0.9-1-1-2.3-0.3-3.5c0.5-0.7,1-1.2,1.9-1.2
			c0.9,0,1.7,0.2,2.8,0.9l1.2,0.7L841.7,109.5z M836.8,148.9c2.4,2.1,4.4,3.8,5.6,5.2s2.1,2.8,2.8,4.5c0.7,1.7,1,3.3,0.9,5.1
			c-0.2,1.7-0.5,3.3-1.4,4.7l-5.6,9.2c-0.5,1-0.5,1.6,0,2.1c0.2,0.2,0.5,0.2,0.7,0.2c0.2,0,0.7-0.2,1.2-0.3c1.4-0.5,2.4-0.5,3.1-0.2
			c0.5,0.3,0.9,0.9,1,1.7c0.2,0.9,0.2,1.6-0.2,2.1c-0.5,0.9-1.7,1.7-3.3,2.6c-1.7,0.9-3.5,1.4-5.4,1.6c-1.7,0.2-3.5,0.2-5.2-0.3
			c-1.7-0.3-3.5-1.2-5.4-2.4c-4-2.3-6.3-5.2-7.1-8.9c-0.9-3.5-0.2-7.3,2.3-11.3l4.5-7.5c1-1.7,1.6-2.6,1.7-3
			c0.5-1.2,0.7-2.6,0.5-3.8c-0.2-1.6-1.2-3-2.6-4l2.8-4.7c1.7,0.7,3.1,1,4.2,0.9c0.9-0.2,1.7-0.5,2.3-1c0.7-0.5,1.4-1.6,2.1-2.8
			l7-11.9c1-1.9,1.6-3.5,1.4-4.9c-0.2-1.4-1-3-2.6-4.5l3-4.9l1.2,0.7c3.3,1.9,6.1,3.8,8.2,5.4c3.3,2.4,5.8,5.4,7.1,8.9
			c2.3,5.1,1.9,10.3-1.2,15.3c-2.4,4.2-5.9,6.8-10.1,8c-1.7,0.5-3.7,0.7-5.6,0.5C843.1,150.3,840.5,149.8,836.8,148.9z"/>
		<path class="st2" d="M917.5,170.5L865,218.8l-15.7-17.1l-0.9-1c-0.9-0.9-1.4-1.7-1.4-2.6c-0.2-0.9,0.2-1.6,0.9-2.1
			c1-1,2.3-1,3.5-0.3c1,0.5,1.7,0.9,1.9,1c0.2,0,0.5,0.2,0.9,0c0.7,0,1.4-0.5,2.4-1.4l38.4-35.4c0.9-0.9,1.4-1.6,1.6-2.3
			c0.2-0.3,0.2-0.7,0-0.9c0-0.2-0.3-0.9-0.9-1.9c-0.5-1.4-0.3-2.4,0.7-3.5c0.7-0.5,1.4-0.9,2.1-0.7c0.9,0.2,1.6,0.7,2.4,1.6l0.9,1
			L917.5,170.5z M868.4,222.1l4.2-3.8c1.7,1.4,3.5,2.4,4.9,3.1c1.4,0.7,3.1,1,5.1,1.4c1.9,0.2,3.7,0.2,5.4,0
			c1.6-0.3,3.5-0.9,5.8-1.7c1-0.5,1.9-0.7,2.4-0.7s1,0.3,1.6,0.9c0.7,0.7,0.9,1.4,0.7,2.1c-0.2,0.7-0.7,1.6-1.7,2.4L883,238.2
			L868.4,222.1z M892.6,199.5l4.5-4.2c2.1,0.9,3.8,1.2,5.4,1.2c1.6,0,3.1-0.5,4.9-1.6c1.2-0.7,2.1-1,2.8-1s1.2,0.3,1.9,0.9
			c0.7,0.9,0.9,1.7,0.5,2.6c-0.2,0.5-0.9,1.2-1.9,2.3l-14.6,13.4c-1.2,1-2.1,1.7-2.8,1.9c-0.7,0.2-1.4-0.2-2.1-0.9
			c-0.5-0.5-0.9-1.2-0.7-1.9c0-0.7,0.3-1.6,1-2.4c1.4-2.1,2.1-4,2.4-5.6C893.8,202.6,893.5,201,892.6,199.5z M920.7,173.8l14.3,15.5
			l-13.6,12.6c-0.7,0.7-1.4,1-2.1,1s-1.2-0.3-1.9-1c-0.5-0.5-0.7-1-0.9-1.6c0-0.5,0.2-1.2,0.7-2.1c2.1-3.7,3-7.1,2.8-10.5
			c-0.2-3.3-1.6-6.6-4-9.9L920.7,173.8z"/>
		<path class="st2" d="M902.9,263.6l-5.2,2.8c-1.4-2.4-2.1-5.8-2.3-9.4c0-1.4-0.2-2.4-0.2-3c0-0.5-0.2-1-0.3-1.4
			c-0.3-0.7-0.7-1-1-1.2c-0.3-0.2-1-0.3-2.3-0.7c-1-0.2-1.6-0.7-1.9-1.2c-0.9-1.7,0-3.3,2.6-4.7l16.7-8.9c0.9-0.5,1.7-0.5,2.6-0.3
			c0.9,0.2,1.6,0.7,1.9,1.4c0.3,0.7,0.5,1.2,0.2,1.9c-0.2,0.5-0.7,1.4-1.7,2.1c-2.3,2.1-4.2,4.4-5.8,7c-1.6,2.6-2.8,5.1-3.3,7.8
			C902,258.4,902,261,902.9,263.6z M964.4,234.3l-5.2,2.8c-1.6-1.6-3.1-2.6-4.7-3c-1.6-0.3-3.3-0.2-4.9,0.7
			c-1.6,0.9-2.6,1.9-3.3,3.3s-1,3.3-1.2,5.8c0,1.7,0.2,5.2,0.5,10.8c0.2,3.3,0.3,6.1,0.2,8.2c-0.2,2.1-0.7,4-1.4,6.3
			c-1.9,5.6-5.4,9.8-10.8,12.6c-4,2.1-8.2,3-12.4,2.8c-4.4-0.2-8.4-1.6-12-4c-1.9-1.4-3.8-3-5.6-4.9c-1.7-1.9-3.1-3.8-4-5.8l5.2-2.8
			c2.1,2.3,4,3.8,5.8,4.4c1.7,0.5,3.7,0.3,5.6-0.7c2.1-1,3.3-3,4-5.6c0.3-1.7,0.3-4.7,0.2-8.9c-0.3-4.7-0.5-7.8-0.5-9.6
			c0-1.7,0.2-3.5,0.3-5.4c1-7.8,5.1-13.8,11.9-17.3c3.5-1.9,7.1-2.8,10.8-3c3.7-0.2,7.1,0.7,10.3,2.3
			C957.6,225.4,961.3,229.3,964.4,234.3z M960.9,240.8l5.1-2.6c0.9,1.9,1.4,3.7,1.7,5.2c0.3,1.6,0.7,3.8,1,6.8
			c0,0.7,0.2,1.4,0.3,1.7c0.3,0.5,0.7,0.9,1.2,1l1.9,0.3c0.9,0.2,1.6,0.5,1.9,1.2c0.5,0.9,0.5,1.6,0,2.3c-0.3,0.7-1.2,1.4-2.4,2.1
			l-15.2,8c-0.9,0.5-1.7,0.5-2.6,0.3c-0.9-0.2-1.4-0.7-1.9-1.6c-0.3-0.7-0.3-1.2-0.3-2.1c0.2-0.3,0.3-0.9,0.5-1.2
			c0.3-0.3,0.7-0.9,1.6-1.4c1.4-1.2,2.6-2.6,3.7-4.2c1.2-1.7,2.1-3.5,2.8-5.2C961.8,248.1,962,244.4,960.9,240.8z"/>
		<path class="st2" d="M926.1,322.4l-5.8,1.4c-0.7-2.8-0.5-6.1,0.2-9.8c0.3-1.4,0.5-2.3,0.5-2.8c0-0.5,0-1,0-1.4
			c-0.2-0.7-0.3-1.2-0.7-1.4c-0.3-0.3-1-0.7-2.1-1.2c-0.9-0.3-1.4-1-1.6-1.7c-0.5-1.9,0.9-3.1,3.7-3.8l18.5-4.4
			c1-0.2,1.9-0.2,2.6,0.2c0.9,0.3,1.4,1,1.6,1.7s0.2,1.4-0.2,1.9c-0.3,0.5-1,1-2.1,1.7c-2.8,1.4-5.2,3.3-7.3,5.2
			c-2.3,2.1-4,4.4-5.2,6.6C926.6,317,925.9,319.6,926.1,322.4z M993,309.5l-5.9,1.4c-1-1.9-2.3-3.3-3.8-4.2c-1.4-0.9-3.1-1-4.9-0.5
			c-1.7,0.3-3.1,1.2-4.2,2.4c-1,1.2-1.9,3-2.6,5.4c-0.5,1.6-1.2,5.2-2.3,10.6c-0.5,3.3-1.2,5.9-1.9,7.8c-0.7,1.9-1.6,3.8-2.8,5.8
			c-3.3,5.1-7.8,8.2-13.6,9.6c-4.4,1-8.5,0.9-12.7-0.3c-4.2-1.4-7.7-3.7-10.6-7c-1.6-1.7-3-3.8-4.2-6.1c-1.2-2.3-2.1-4.5-2.6-6.6
			l5.8-1.4c1.4,2.8,3,4.7,4.5,5.6c1.6,1,3.5,1.2,5.6,0.7c2.3-0.5,4-2.1,5.2-4.5c0.9-1.6,1.6-4.5,2.3-8.7c0.9-4.5,1.4-7.7,1.9-9.4
			c0.3-1.7,1-3.5,1.7-5.1c3-7.5,8.4-12,15.9-13.8c3.8-0.9,7.7-0.9,11.3-0.2c3.7,0.9,6.8,2.4,9.4,4.9
			C988.5,299,991.3,303.5,993,309.5z M988,314.7l5.6-1.4c0.3,2.1,0.5,3.8,0.5,5.4s-0.3,3.8-0.9,6.8c-0.2,0.7-0.2,1.4,0,1.7
			c0.2,0.7,0.5,1,1,1.2l1.7,0.7c0.9,0.3,1.4,0.9,1.6,1.7s0,1.7-0.5,2.3c-0.5,0.5-1.6,1-3,1.4l-16.7,4c-1,0.2-1.7,0.2-2.6-0.3
			c-0.7-0.3-1.2-1-1.4-1.9c-0.2-0.7,0-1.4,0.2-2.1c0.2-0.3,0.5-0.7,0.9-1s0.9-0.7,1.7-1c1.6-0.7,3.1-1.7,4.7-3.1s2.8-2.8,4-4.4
			C986.9,322.2,988,318.7,988,314.7z"/>
		<path class="st2" d="M995.8,397.7l5.6,0.2c-0.3,3.7-1.2,7.1-2.6,10.3c-1.4,3.1-3.5,5.9-6.3,8.5c-7.1,6.8-16.9,10.1-29.1,9.6
			c-12-0.3-21.3-4.2-27.9-11.2c-5.1-5.4-7.7-12-8-19.7l5.8,0.2c0.2,0.9,0.3,1.6,0.7,2.1c0.3,0.5,0.7,1,1.4,1.4
			c1.4,1,3.5,1.6,6.5,1.6l46.6,1.6c1.9,0,3.3-0.2,4.4-0.9c0.7-0.3,1.4-0.9,1.7-1.4C995.1,399.4,995.4,398.7,995.8,397.7z M996,393.3
			c-0.5-1.7-1.4-3.1-2.4-3.8c-1-0.7-2.6-1.2-4.7-1.2l-46.6-1.6c-3.1-0.2-5.2,0.2-6.5,1c-1,0.7-1.9,1.7-2.4,3.5l-5.8-0.2
			c0.9-7.7,4-13.9,9.4-19c7-6.5,16.6-9.6,28.6-9.1c6.1,0.2,11.5,1.2,16.2,3.3c4.9,1.9,8.9,4.7,12.2,8.4c2.4,2.8,4.4,5.8,5.6,8.9
			c1.2,3.1,1.9,6.6,1.9,10.3L996,393.3z"/>
	</g>
	<g>
		<path class="st2" d="M553.1,605.9l-3,5.1c-1.7-0.7-3.3-0.7-4.9,0c-1.6,0.7-3,2.1-4.2,4.4l-20.4,33.8l-1,1.7
			c-0.3,0.7-0.7,1.4-0.9,2.3c-0.2,0.9-0.2,1.6,0,2.4c0.2,0.9,0.3,1.4,0.7,1.9s0.9,1,1.7,1.7l-3,5.1c-5.2-3.1-9.1-7.3-11.3-12.6
			c-1.9-4.5-2.6-9.4-1.9-14.5c0.7-5.2,2.8-10.6,6.3-16.2c2.4-4.2,5.4-7.7,8.7-10.5c3.3-3,6.8-5.1,10.6-6.3c3.8-1.4,7.7-1.9,11.7-1.7
			s7.5,1.2,10.3,3L553.1,605.9z M521.4,666.2l3-5.1c2.3,1,4.9,1.7,8.2,1.6c1.7,0,3.5-0.3,5.2-1.2c1.7-0.7,3.3-1.7,4.9-3
			c0.9-0.7,1.6-1.2,2.1-1.2c0.5-0.2,1.2,0,1.7,0.3c0.7,0.3,1,1,1.2,1.7c0.2,0.7,0,1.6-0.5,2.3c-0.7,1.2-2.1,2.4-4.2,3.7
			c-1.9,1.2-4.2,2.1-6.6,2.6c-3,0.7-5.6,0.9-8,0.7C526.3,668.4,523.8,667.6,521.4,666.2z M553.3,612.8l3-5.1c1.2,1,2.1,1.9,2.8,2.6
			s1.9,2.3,3.5,4.4c1,1.4,1.9,2.1,2.3,2.4c0.9,0.5,1.6,0.5,2.4,0l1.2-0.7c0.7-0.5,1.6-0.5,2.4,0.2c0.7,0.5,1.2,1,1.4,1.7
			c0.2,0.7,0,1.4-0.5,2.3l-10.3,17.1c-0.7,1-1.4,1.7-2.3,1.9c-0.9,0.2-1.6,0.2-2.1-0.3c-0.7-0.3-1-0.9-1.2-1.6
			c-0.2-0.7,0-1.6,0.3-2.6c0.7-2.4,1.2-4.5,1.4-6.1c0.3-3.3,0.3-6.3-0.2-8.7c-0.3-1.7-0.9-3.1-1.6-4.4
			C555.4,614.9,554.5,613.9,553.3,612.8z"/>
		<path class="st2" d="M598.3,632.7c-1.7,0-3.1,0.3-4,1c-1,0.7-1.7,1.9-2.4,3.8l-13.8,40.6c-0.9,2.6-1.2,4.7-0.9,5.9
			c0.3,1,1,2.1,2.6,3l-1.7,5.1c-6.6-2.8-11.3-7.3-14.5-13.3c-4-7.8-4.2-17.1-0.5-27.5c1.7-5.2,4.2-9.8,7.1-13.4
			c3-3.7,6.6-6.6,10.6-8.5c3.1-1.4,6.3-2.4,9.2-2.6c3.1-0.3,6.3,0,9.6,1L598.3,632.7z M601.9,633.9l1.7-4.9c3.1,1.2,5.9,3,8.4,5.1
			c2.3,2.1,4.2,4.7,5.8,7.7c4.2,8.2,4.4,17.6,0.9,28.2c-3.5,10.5-9.2,17.8-17.3,21.6c-6.1,3-12.6,3.7-19.5,1.9l1.7-5.1
			c0.9,0.2,1.6,0,2.1,0c0.5-0.2,1-0.3,1.6-0.9c1.2-1,2.3-2.6,3.1-5.2l13.8-40.6c0.5-1.6,0.7-3,0.5-4.2c-0.2-0.7-0.3-1.4-0.9-1.9
			C603.3,635.1,602.8,634.6,601.9,633.9z"/>
		<path class="st2" d="M656.9,641.8l-6.3,56c-0.2,1.2,0,2.1,0.3,2.8c0.2,0.3,0.3,0.5,0.7,0.7c0.2,0.2,0.9,0.3,2.1,0.9
			c1.6,0.5,2.1,1.4,1.9,3c-0.2,0.9-0.5,1.4-1.4,1.9c-0.7,0.3-1.7,0.3-3.1,0.2l-1.6-0.2l-21.3-2.4l-1.2-0.2c-1.2-0.2-1.9-0.5-2.6-0.9
			c-0.5-0.5-0.9-1.2-0.7-1.9c0.2-1.2,0.9-2.1,2.3-2.4c1-0.2,1.7-0.3,1.9-0.5c0.2,0,0.3-0.2,0.5-0.5c0.5-0.5,0.7-1.2,0.9-2.4
			l5.4-47.6c0.2-1,0-1.9-0.3-2.4c-0.2-0.3-0.3-0.5-0.5-0.5c-0.2-0.2-0.7-0.3-1.7-0.9c-1.2-0.5-1.7-1.6-1.6-2.8
			c0.2-0.9,0.5-1.4,1-1.7c0.7-0.3,1.6-0.5,2.8-0.3l1.2,0.2L656.9,641.8z M657.2,676.8l0.7-5.6c1.9-0.7,3.5-1.6,4.4-2.4
			c1-0.9,1.7-2.3,2.4-4c0.3-1.2,0.9-1.9,1.2-2.4c0.5-0.3,1-0.5,1.9-0.5c1,0.2,1.7,0.5,1.9,1.4c0.2,0.5,0.2,1.4,0,2.8l-2.1,18.1
			c-0.2,1.6-0.5,2.6-0.9,3.1c-0.3,0.5-1,0.7-1.9,0.7c-0.7,0-1.2-0.3-1.6-0.9s-0.5-1.2-0.7-2.4c-0.3-2.3-0.9-4-1.7-5.4
			C659.8,678.4,658.6,677.3,657.2,676.8z M661.2,642.3l19.2,2.1l-1.9,16.6c-0.2,1-0.3,1.9-0.9,2.3c-0.3,0.5-1,0.7-1.9,0.5
			c-0.7,0-1-0.3-1.4-0.7c-0.3-0.3-0.5-1-0.7-1.7c-0.3-1.6-0.7-3.1-1.4-4.5s-1.4-2.6-2.3-3.7c-1.2-1.4-2.4-2.6-4-3.3
			c-1.4-0.9-3.3-1.6-5.4-2.1L661.2,642.3z"/>
		<path class="st2" d="M709.2,641.9l4.9,56.1c0.2,1.2,0.3,2.1,0.9,2.6c0.3,0.3,0.5,0.5,0.7,0.5c0.2,0,1,0.2,2.3,0.3
			c1.6,0.2,2.4,1,2.4,2.4c0,0.9-0.3,1.6-1,2.1c-0.5,0.5-1.6,0.7-3,0.9l-1.6,0.2l-21.3,1.9l-1.2,0.2c-1.2,0.2-2.1,0-2.6-0.3
			c-0.7-0.3-1-1-1-1.7c-0.2-1.2,0.5-2.3,1.7-2.8c1-0.5,1.6-0.7,1.7-0.9c0.2-0.2,0.3-0.3,0.5-0.5c0.3-0.5,0.5-1.4,0.3-2.4l-4.2-47.8
			c-0.2-1-0.3-1.9-0.7-2.4c-0.2-0.3-0.3-0.3-0.5-0.5c-0.2,0-0.9-0.2-1.9-0.5c-1.2-0.3-2.1-1-2.1-2.4c0-0.9,0.2-1.4,0.7-1.9
			s1.4-0.7,2.6-0.9l1.2-0.2L709.2,641.9z M713.4,641.6l19.4-1.7l1.4,16.6c0.2,1,0,1.9-0.3,2.4c-0.3,0.5-0.9,0.9-1.7,0.9
			c-0.7,0-1.2,0-1.6-0.3c-0.3-0.3-0.7-0.9-1-1.6c-0.7-1.6-1.4-3-2.3-4.2c-0.9-1.2-1.9-2.3-2.8-3.1c-1.4-1.2-3-1.9-4.5-2.6
			c-1.6-0.5-3.5-0.9-5.8-0.9L713.4,641.6z M716.1,676.3l-0.5-5.6c1.7-1,3.1-2.1,3.8-3.3c0.9-1,1.4-2.6,1.6-4.4
			c0.2-1.2,0.3-2.1,0.7-2.6s0.9-0.7,1.7-0.9c1-0.2,1.7,0.2,2.3,1c0.2,0.3,0.5,1.4,0.5,2.8l1.6,18.1c0.2,1.6,0,2.4-0.2,3.1
			c-0.3,0.5-0.9,0.9-1.7,1c-0.7,0-1.4-0.2-1.7-0.5c-0.5-0.3-0.9-1-1.2-2.1c-0.7-2.1-1.7-3.8-2.8-4.9
			C719.1,677.2,717.7,676.5,716.1,676.3z"/>
		<path class="st2" d="M759.9,631.7l19,62.6l-20.4,6.1l-1.2,0.3c-1,0.3-1.9,0.3-2.6,0.2c-0.7-0.2-1.2-0.7-1.4-1.6
			c-0.3-1.2,0-2.3,1-3c0.9-0.7,1.4-1,1.6-1.2c0.2-0.2,0.3-0.3,0.3-0.7c0.2-0.5,0.2-1.4-0.2-2.4l-13.9-46c-0.3-1-0.7-1.7-1.2-2.1
			c-0.3-0.2-0.5-0.3-0.7-0.3s-0.9,0-1.9-0.2c-1.4,0-2.3-0.7-2.6-1.9c-0.2-0.7-0.2-1.4,0.3-2.1c0.5-0.5,1.2-1,2.3-1.4l1.2-0.3
			L759.9,631.7z M763.9,630.4l18.5-5.6l4.9,16.2c0.3,1,0.3,1.7,0,2.3c-0.2,0.5-0.7,0.9-1.6,1.2c-0.7,0.2-1.2,0.2-1.6,0
			c-0.3-0.2-0.9-0.7-1.4-1.4c-2.3-3.1-4.7-5.4-7.5-6.6c-2.8-1.2-6.1-1.4-9.8-0.7L763.9,630.4z M773.9,663.9l-1.6-5.4
			c1.6-1.4,2.6-2.8,3.1-4c0.5-1.2,0.7-2.8,0.7-4.5c-0.2-1.2,0-2.1,0.2-2.6c0.3-0.5,0.7-0.9,1.6-1.2c1-0.3,1.7-0.2,2.4,0.5
			c0.3,0.3,0.7,1.2,1,2.6l5.2,17.4c0.3,1.4,0.5,2.4,0.3,3.1c-0.2,0.7-0.7,1-1.6,1.4c-0.7,0.2-1.4,0.2-1.9-0.2
			c-0.5-0.3-1-0.9-1.6-1.9c-1.2-1.9-2.4-3.3-3.7-4.2C777,664.3,775.4,663.7,773.9,663.9z M783.1,693l-1.6-4.9
			c1.9-0.9,3.5-1.9,4.5-2.8c1-0.9,2.3-2.3,3.1-3.7c1-1.6,1.7-3,2.1-4.5c0.3-1.4,0.7-3.3,0.7-5.4c0-1,0.2-1.9,0.5-2.3
			c0.2-0.5,0.7-0.9,1.4-1c0.9-0.2,1.6-0.2,2.1,0.2c0.5,0.3,0.9,1.2,1.2,2.4l4.9,16.2L783.1,693z"/>
		<path class="st2" d="M808.9,610.7l31.6,57.4l-18.7,10.3l-1,0.5c-1,0.5-1.9,0.9-2.6,0.7c-0.7,0-1.4-0.5-1.7-1.2
			c-0.7-1.2-0.5-2.3,0.5-3.1c0.7-0.9,1.2-1.2,1.4-1.4s0.2-0.3,0.2-0.7c0.2-0.7-0.2-1.4-0.7-2.4l-23.2-42c-0.5-1-1-1.6-1.7-1.9
			c-0.3-0.2-0.5-0.2-0.7-0.2c-0.2,0-0.9,0.2-1.9,0.3c-1.4,0.2-2.3-0.2-3-1.4c-0.3-0.7-0.3-1.4,0-2.1c0.3-0.7,1-1.2,2.1-1.9l1-0.5
			L808.9,610.7z M812.7,608.6l16.9-9.2l8.2,15c0.5,0.9,0.7,1.6,0.5,2.1c-0.2,0.5-0.5,1-1.2,1.4c-0.7,0.3-1,0.5-1.6,0.3
			c-0.3-0.2-1-0.5-1.6-1c-2.8-2.6-5.8-4.2-8.7-4.9c-3-0.5-6.3-0.2-9.6,1.4L812.7,608.6z M829.5,639.3l-2.6-4.9
			c1.2-1.7,1.9-3.1,2.3-4.5c0.3-1.4,0.2-3-0.3-4.7c-0.3-1.2-0.5-2.1-0.3-2.6c0.2-0.5,0.5-1,1.2-1.4c0.9-0.5,1.7-0.5,2.4,0
			c0.3,0.2,0.9,1,1.7,2.3l8.9,16c0.7,1.4,1,2.3,1,3s-0.3,1.2-1.2,1.6c-0.7,0.3-1.2,0.3-1.9,0.2c-0.5-0.2-1.2-0.7-1.9-1.6
			c-1.6-1.7-3-2.8-4.5-3.3C832.4,639,831,639,829.5,639.3z M844.3,666l-2.4-4.5c1.7-1.2,3-2.4,3.8-3.7c0.9-1.2,1.7-2.6,2.3-4.4
			c0.7-1.7,1-3.3,1-4.9c0.2-1.6,0-3.3-0.3-5.6c-0.2-1-0.2-1.9,0-2.4c0.2-0.5,0.5-0.9,1-1.2c0.7-0.3,1.4-0.5,2.1-0.2
			c0.5,0.3,1.2,1,1.7,2.1l8.2,14.8L844.3,666z"/>
	</g>
</g>
</svg>
