<svg width="20" height="20" viewBox="0 0 20 20" fill="none" xmlns="http://www.w3.org/2000/svg">
<path d="M16.7675 14.9141C16.3991 14.0414 15.8644 13.2486 15.1933 12.5801C14.5242 11.9096 13.7316 11.375 12.8593 11.0059C12.8515 11.002 12.8437 11 12.8359 10.9961C14.0527 10.1172 14.8437 8.68555 14.8437 7.07031C14.8437 4.39453 12.6757 2.22656 9.99993 2.22656C7.32415 2.22656 5.15618 4.39453 5.15618 7.07031C5.15618 8.68555 5.94719 10.1172 7.16399 10.998C7.15618 11.002 7.14836 11.0039 7.14055 11.0078C6.26555 11.377 5.4804 11.9062 4.80657 12.582C4.13608 13.2511 3.6015 14.0437 3.23235 14.916C2.8697 15.77 2.67411 16.6856 2.65618 17.6133C2.65566 17.6341 2.65931 17.6549 2.66693 17.6743C2.67455 17.6937 2.68598 17.7114 2.70054 17.7263C2.7151 17.7412 2.7325 17.7531 2.75172 17.7612C2.77093 17.7693 2.79157 17.7734 2.81243 17.7734H3.9843C4.07024 17.7734 4.1386 17.7051 4.14055 17.6211C4.17961 16.1133 4.78508 14.7012 5.8554 13.6309C6.96282 12.5234 8.43352 11.9141 9.99993 11.9141C11.5663 11.9141 13.037 12.5234 14.1445 13.6309C15.2148 14.7012 15.8202 16.1133 15.8593 17.6211C15.8613 17.707 15.9296 17.7734 16.0156 17.7734H17.1874C17.2083 17.7734 17.2289 17.7693 17.2481 17.7612C17.2674 17.7531 17.2848 17.7412 17.2993 17.7263C17.3139 17.7114 17.3253 17.6937 17.3329 17.6743C17.3405 17.6549 17.3442 17.6341 17.3437 17.6133C17.3241 16.6797 17.1308 15.7715 16.7675 14.9141ZM9.99993 10.4297C9.10344 10.4297 8.25969 10.0801 7.62493 9.44531C6.99016 8.81055 6.64055 7.9668 6.64055 7.07031C6.64055 6.17383 6.99016 5.33008 7.62493 4.69531C8.25969 4.06055 9.10344 3.71094 9.99993 3.71094C10.8964 3.71094 11.7402 4.06055 12.3749 4.69531C13.0097 5.33008 13.3593 6.17383 13.3593 7.07031C13.3593 7.9668 13.0097 8.81055 12.3749 9.44531C11.7402 10.0801 10.8964 10.4297 9.99993 10.4297Z" fill="#213C5D"/>
</svg>
