<?xml version="1.0" encoding="utf-8"?>
<!-- Generator: Adobe Illustrator 25.4.1, SVG Export Plug-In . SVG Version: 6.00 Build 0)  -->
<svg version="1.1" id="Layer_1" xmlns="http://www.w3.org/2000/svg" xmlns:xlink="http://www.w3.org/1999/xlink" x="0px" y="0px"
	 viewBox="0 0 595.3 841.9" style="enable-background:new 0 0 595.3 841.9;" xml:space="preserve">
<style type="text/css">
	.st0{fill:#C6C6C6;}
	.st1{fill:#FFFFFF;}
	.st2{fill:#1F1754;}
</style>
<g>
	<g>
		<path class="st0" d="M228.8,224.6l-12.2,4.9l1.5-14.2L228.8,224.6z"/>
		<path class="st0" d="M242.7,220.3l-12.5,4l2.5-14.1L242.7,220.3z"/>
		<path class="st0" d="M256.3,217.3l-12.7,3.1l3.5-13.8L256.3,217.3z"/>
		<path class="st0" d="M270.4,214.6l-12.9,2.1l4.5-13.5L270.4,214.6z"/>
		<path class="st0" d="M285.2,213.6l-13.1,1.2l5.5-13.2L285.2,213.6z"/>
		<path class="st0" d="M300.5,213.3l-13.1,0.2l6.5-12.7L300.5,213.3z"/>
		<path class="st0" d="M315.7,214.1l-13.1-0.7l7.4-12.2L315.7,214.1z"/>
		<path class="st0" d="M330.9,216l-13-1.7l8.2-11.7L330.9,216z"/>
		<path class="st0" d="M345.8,218.9l-12.8-2.6l9.1-11L345.8,218.9z"/>
		<path class="st0" d="M360.5,223l-12.6-3.6l9.9-10.3L360.5,223z"/>
		<path class="st0" d="M374.9,228.2l-12.3-4.5l10.6-9.6L374.9,228.2z"/>
		<path class="st0" d="M388.8,234.4l-11.9-5.4l11.3-8.8L388.8,234.4z"/>
		<path class="st0" d="M402.3,241.6l-11.5-6.3l11.9-7.9L402.3,241.6z"/>
		<path class="st0" d="M415.2,249.8l-11-7.1l12.4-7L415.2,249.8z"/>
		<path class="st0" d="M427.4,258.9l-10.5-7.9l12.9-6.1L427.4,258.9z"/>
		<path class="st0" d="M438.9,268.9l-9.9-8.6l13.3-5.1L438.9,268.9z"/>
		<path class="st0" d="M449.7,279.7l-9.2-9.3l13.7-4.1L449.7,279.7z"/>
		<path class="st0" d="M459.7,291.2l-8.5-10l13.9-3.1L459.7,291.2z"/>
		<path class="st0" d="M468.8,303.5l-7.8-10.6l14.1-2.1L468.8,303.5z"/>
		<path class="st0" d="M477,316.4l-7-11.1l14.2-1.1L477,316.4z"/>
		<path class="st0" d="M484.2,329.8l-6.1-11.6h14.3L484.2,329.8z"/>
		<path class="st0" d="M490.4,343.8l-5.3-12l14.2,1.1L490.4,343.8z"/>
		<path class="st0" d="M495.5,358.2l-4.4-12.4l14.1,2.1L495.5,358.2z"/>
		<path class="st0" d="M499.6,372.9l-3.4-12.7l13.9,3.1L499.6,372.9z"/>
		<path class="st0" d="M502.6,387.8l-2.5-12.9l13.7,4.2L502.6,387.8z"/>
		<path class="st0" d="M504.5,403l-1.5-13l13.3,5.2L504.5,403z"/>
		<path class="st0" d="M505.2,418.2l-0.6-13.1l12.9,6.1L505.2,418.2z"/>
		<path class="st0" d="M504.9,433.5l0.4-13.1l12.4,7L504.9,433.5z"/>
		<path class="st0" d="M503.4,448.7l1.3-13l11.9,7.9L503.4,448.7z"/>
		<path class="st0" d="M500.9,463.7l2.3-12.9l11.3,8.8L500.9,463.7z"/>
		<path class="st0" d="M497.2,478.5l3.2-12.7l10.6,9.6L497.2,478.5z"/>
		<path class="st0" d="M492.4,493l4.1-12.4l9.9,10.3L492.4,493z"/>
		<path class="st0" d="M486.6,507.2l5.1-12.1l9.1,11L486.6,507.2z"/>
		<path class="st0" d="M479.8,520.8l5.9-11.7l8.2,11.7L479.8,520.8z"/>
		<path class="st0" d="M471.9,533.9l6.8-11.2l7.3,12.2L471.9,533.9z"/>
		<path class="st0" d="M463.2,546.4l7.6-10.7l6.4,12.7L463.2,546.4z"/>
		<path class="st0" d="M453.5,558.2l8.3-10.1l5.5,13.2L453.5,558.2z"/>
		<path class="st0" d="M443,569.3l9.1-9.5l4.5,13.5L443,569.3z"/>
		<path class="st0" d="M431.8,579.6l9.7-8.8l3.5,13.8L431.8,579.6z"/>
		<path class="st0" d="M419.8,589l10.3-8.1l2.5,14.1L419.8,589z"/>
		<path class="st0" d="M407.1,597.6l10.9-7.3l1.4,14.2L407.1,597.6z"/>
		<path class="st0" d="M393.9,605.1l11.4-6.5l0.4,14.3L393.9,605.1z"/>
		<path class="st0" d="M380.1,611.7l11.9-5.6l-0.7,14.3L380.1,611.7z"/>
		<path class="st0" d="M365.9,617.3l12.2-4.7l-1.7,14.2L365.9,617.3z"/>
		<path class="st0" d="M351.3,621.8l12.6-3.8l-2.7,14L351.3,621.8z"/>
		<path class="st0" d="M336.4,625.2l12.8-2.8l-3.8,13.8L336.4,625.2z"/>
		<path class="st0" d="M321.3,627.5l13-1.9l-4.8,13.5L321.3,627.5z"/>
		<path class="st0" d="M306.1,628.6l13.1-0.9l-5.8,13.1L306.1,628.6z"/>
		<path class="st0" d="M290.8,628.6l13.1,0.2l-6.9,12.5L290.8,628.6z"/>
		<path class="st0" d="M275.6,627.7l13.1,1l-7.6,12.1L275.6,627.7z"/>
		<path class="st0" d="M260.5,625.5l13,1.9L265,639L260.5,625.5z"/>
		<path class="st0" d="M245.6,622.3l12.8,2.9l-9.3,10.9L245.6,622.3z"/>
		<path class="st0" d="M231,617.9l12.5,3.8l-10,10.1L231,617.9z"/>
		<path class="st0" d="M216.7,612.5l12.2,4.7l-10.8,9.4L216.7,612.5z"/>
		<path class="st0" d="M202.9,606.1l11.9,5.6l-11.4,8.6L202.9,606.1z"/>
		<path class="st0" d="M189.6,598.6l11.4,6.5l-12,7.7L189.6,598.6z"/>
		<path class="st0" d="M176.8,590.2l10.9,7.3l-12.6,6.8L176.8,590.2z"/>
		<path class="st0" d="M164.7,580.9l10.3,8.1l-13,5.8L164.7,580.9z"/>
		<path class="st0" d="M153.4,570.7l9.7,8.8l-13.4,4.9L153.4,570.7z"/>
		<path class="st0" d="M142.8,559.7l9.1,9.5l-13.7,3.9L142.8,559.7z"/>
		<path class="st0" d="M133,548l8.3,10.1l-14,2.9L133,548z"/>
		<path class="st0" d="M124.1,535.6l7.6,10.7l-14.2,1.8L124.1,535.6z"/>
		<path class="st0" d="M116.2,522.6l6.8,11.2l-14.3,0.8L116.2,522.6z"/>
		<path class="st0" d="M109.2,509l5.9,11.7l-14.3-0.2L109.2,509z"/>
		<path class="st0" d="M103.2,494.9l5.1,12.1l-14.2-1.3L103.2,494.9z"/>
		<path class="st0" d="M98.3,480.5l4.1,12.4l-14.1-2.3L98.3,480.5z"/>
		<path class="st0" d="M94.5,465.7l3.2,12.7L83.9,475L94.5,465.7z"/>
		<path class="st0" d="M91.8,450.7l2.3,12.9l-13.6-4.4L91.8,450.7z"/>
		<path class="st0" d="M90.2,435.5l1.3,13l-13.2-5.4L90.2,435.5z"/>
		<path class="st0" d="M89.7,420.3l0.4,13.1L77.3,427L89.7,420.3z"/>
		<path class="st0" d="M90.3,405l-0.6,13.1l-12.3-7.2L90.3,405z"/>
		<path class="st0" d="M92,389.8l-1.5,13l-11.7-8.1L92,389.8z"/>
		<path class="st0" d="M94.9,374.8l-2.5,12.9l-11.1-9L94.9,374.8z"/>
		<path class="st0" d="M98.8,360.1l-3.4,12.7L84.9,363L98.8,360.1z"/>
		<path class="st0" d="M103.8,345.7l-4.4,12.4l-9.7-10.5L103.8,345.7z"/>
		<path class="st0" d="M109.9,331.7l-5.3,12l-8.9-11.2L109.9,331.7z"/>
		<path class="st0" d="M116.9,318.2l-6.1,11.6l-8-11.8L116.9,318.2z"/>
		<path class="st0" d="M125,305.2l-7,11.1l-7.1-12.4L125,305.2z"/>
		<path class="st0" d="M134,292.9l-7.8,10.6l-6.2-12.9L134,292.9z"/>
		<path class="st0" d="M143.8,281.2l-8.5,10l-5.3-13.3L143.8,281.2z"/>
		<path class="st0" d="M154.5,270.3l-9.2,9.3L141,266L154.5,270.3z"/>
		<path class="st0" d="M166,260.2l-9.9,8.6l-3.3-13.9L166,260.2z"/>
		<path class="st0" d="M178.1,251l-10.5,7.9l-2.2-14.1L178.1,251z"/>
		<path class="st0" d="M190.1,243l-11,7.1l-1.2-14.2L190.1,243z"/>
		<path class="st0" d="M201.8,236.3l-11.5,6.3l-0.2-14.3L201.8,236.3z"/>
		
			<ellipse transform="matrix(0.7071 -0.7071 0.7071 0.7071 -210.5958 333.6677)" class="st0" cx="297.5" cy="421" rx="205.8" ry="205.8"/>
		
			<ellipse transform="matrix(0.1602 -0.9871 0.9871 0.1602 -165.7828 647.2353)" class="st1" cx="297.5" cy="421" rx="131.9" ry="131.9"/>
		
			<ellipse transform="matrix(0.1228 -0.9924 0.9924 0.1228 -156.9196 664.5515)" class="st0" cx="297.5" cy="421" rx="124" ry="124"/>
		
			<ellipse transform="matrix(0.9785 -0.2063 0.2063 0.9785 -80.4465 70.4091)" class="st2" cx="297.5" cy="421" rx="118.2" ry="118.2"/>
		
			<ellipse transform="matrix(0.9732 -0.2298 0.2298 0.9732 -88.7788 79.6095)" class="st0" cx="297.5" cy="421" rx="110.3" ry="110.3"/>
		
			<ellipse transform="matrix(0.7071 -0.7071 0.7071 0.7071 -210.5952 333.6682)" class="st2" cx="297.5" cy="421" rx="102.6" ry="102.6"/>
		<path class="st0" d="M297.8,505.2c-0.5-4.1-1.4-7.7-3.7-8c-2.3-0.4-3.4,1.5-5.5,4.6c-2.1,3.1-6.3,9.6-6.3,9.6
			c-1.2-4.5-2.6-9.5-3.6-13.1c-0.8-2.7-1-3.7-3.3-4.1c-2.2-0.4-3.4,1.8-4.4,3.6c-0.9,1.7-2,4.1-4.5,9.2c-2.3,4.6-0.9,7.5,3.9,9.4
			c4.8,1.9,17.5,3.9,22.1,3.4c4.4-0.4,6.4-2.8,6.3-5.9C298.7,510.9,298.4,510.3,297.8,505.2z M273.2,514.4c-1.2-0.2-2-1.3-1.8-2.5
			c0.2-1.2,1.3-2,2.5-1.8c1.2,0.2,2,1.3,1.8,2.5C275.5,513.8,274.4,514.6,273.2,514.4z M290.8,517.1c-1.2-0.2-2-1.3-1.8-2.5
			c0.2-1.2,1.3-2,2.5-1.8c1.2,0.2,2,1.3,1.8,2.5C293.1,516.5,292,517.3,290.8,517.1z M330.6,498.3c-2-3.6-4.2-6.5-6.5-6
			c-2.3,0.5-2.6,2.7-3.4,6.3c-0.8,3.7-2.2,11.3-2.2,11.3c-2.8-3.7-6-7.8-8.4-10.7c-1.8-2.2-2.3-3-4.6-2.5c-2.2,0.5-2.4,3-2.6,5
			c-0.2,1.9-0.2,4.6-0.6,10.2c-0.3,5.2,2,7.3,7.2,7.2c5.2-0.1,17.7-3.1,21.7-5.3c3.9-2.1,4.9-5,3.6-7.9
			C333.6,503.2,333.1,502.8,330.6,498.3z M311.4,516.2c-1.2,0.3-2.4-0.4-2.6-1.6c-0.3-1.2,0.4-2.4,1.6-2.6c1.2-0.3,2.4,0.4,2.6,1.6
			C313.3,514.7,312.5,515.9,311.4,516.2z M328.6,512c-1.2,0.3-2.4-0.4-2.6-1.6c-0.3-1.2,0.4-2.4,1.6-2.6c1.2-0.3,2.4,0.4,2.6,1.6
			C330.5,510.5,329.8,511.7,328.6,512z M365,485c-2.3-2.1-2.9-2.3-6.9-5.5c-3.2-2.5-6.4-4.4-8.3-3.1c-1.9,1.4-1.3,3.4-0.7,7.1
			c0.7,3.7,2.3,11.2,2.3,11.2c-4-2.4-8.5-4.9-11.8-6.7c-2.5-1.4-3.3-1.9-5.2-0.5c-1.8,1.3-1.1,3.7-0.5,5.7c0.5,1.9,1.5,4.3,3.3,9.7
			c1.7,4.9,4.7,6,9.4,3.9c4.8-2.1,15.1-9.7,18-13.2C367.5,490.3,367.3,487.2,365,485z M347.1,503.4c-1,0.7-2.3,0.5-3.1-0.5
			c-0.7-1-0.5-2.4,0.5-3.1c1-0.7,2.4-0.5,3.1,0.5C348.3,501.3,348.1,502.7,347.1,503.4z M361.5,492.9c-1,0.7-2.3,0.5-3.1-0.5
			c-0.7-1-0.5-2.4,0.5-3.1c1-0.7,2.3-0.5,3.1,0.5C362.7,490.8,362.5,492.2,361.5,492.9z M384.8,453.4c-2.9-1.1-3.6-1-8.5-2.4
			c-4-1.1-7.6-1.7-8.8,0.3c-1.2,2,0.1,3.7,2.1,6.9c2,3.2,6.4,9.5,6.4,9.5c-4.6-0.6-9.7-1.2-13.5-1.6c-2.8-0.3-3.8-0.5-5,1.5
			c-1.2,1.9,0.4,3.8,1.7,5.4c1.2,1.5,3.1,3.4,6.8,7.6c3.4,3.9,6.6,3.7,10.2,0c3.6-3.8,10.3-14.7,11.6-19.1
			C389.1,457.3,387.7,454.5,384.8,453.4z M375.3,477.2c-0.6,1-2,1.4-3,0.7c-1-0.6-1.4-2-0.7-3c0.6-1,2-1.4,3-0.7
			C375.6,474.8,376,476.2,375.3,477.2z M384.6,462c-0.6,1-2,1.4-3,0.7c-1-0.6-1.4-2-0.7-3c0.6-1,2-1.4,3-0.7
			C384.9,459.6,385.2,461,384.6,462z M396.8,423.9c-0.4-4.4-2.8-6.4-5.9-6.3c-3.1,0.1-3.7,0.4-8.8,1c-4.1,0.5-7.7,1.4-8,3.7
			c-0.4,2.3,1.5,3.4,4.6,5.5c3.1,2.1,9.6,6.3,9.6,6.3c-4.5,1.2-9.5,2.6-13.1,3.6c-2.7,0.8-3.7,1-4.1,3.3c-0.4,2.2,1.8,3.4,3.6,4.4
			c1.7,0.9,4.1,2,9.2,4.5c4.6,2.3,7.5,0.9,9.4-3.9C395.3,441.1,397.3,428.4,396.8,423.9z M388.8,445c-1.2-0.2-2-1.3-1.8-2.5
			c0.2-1.2,1.3-2,2.5-1.8c1.2,0.2,2,1.3,1.8,2.5C391.1,444.4,390,445.2,388.8,445z M391.6,427.4c-1.2-0.2-2-1.3-1.8-2.5
			c0.2-1.2,1.3-2,2.5-1.8c1.2,0.2,2,1.3,1.8,2.5C393.9,426.8,392.8,427.6,391.6,427.4z M375.3,385.8c-3.6,2-6.5,4.2-6,6.5
			c0.5,2.3,2.7,2.6,6.3,3.4c3.7,0.8,11.3,2.2,11.3,2.2c-3.7,2.8-7.8,6-10.7,8.4c-2.2,1.8-3,2.3-2.5,4.6c0.5,2.2,3,2.4,5,2.6
			c1.9,0.2,4.6,0.2,10.2,0.6c5.2,0.3,7.3-2,7.2-7.2c-0.1-5.2-3.1-17.7-5.3-21.7c-2.1-3.9-5-4.9-7.9-3.6
			C380.1,382.8,379.7,383.3,375.3,385.8z M390.5,403.4c1.2-0.3,2.4,0.4,2.6,1.6c0.3,1.2-0.4,2.4-1.6,2.6c-1.2,0.3-2.4-0.4-2.6-1.6
			C388.6,404.9,389.3,403.7,390.5,403.4z M386.3,386.1c1.2-0.3,2.4,0.4,2.6,1.6c0.3,1.2-0.4,2.4-1.6,2.6c-1.2,0.3-2.4-0.4-2.6-1.6
			C384.4,387.6,385.1,386.4,386.3,386.1z M353.4,366.6c1.4,1.9,3.4,1.3,7.1,0.7c3.7-0.7,11.2-2.3,11.2-2.3c-2.3,4-4.9,8.5-6.7,11.8
			c-1.4,2.5-1.9,3.3-0.5,5.2c1.3,1.8,3.7,1.1,5.7,0.5c1.9-0.5,4.3-1.5,9.7-3.3c4.9-1.7,6-4.7,3.9-9.4c-2.1-4.8-9.7-15.1-13.2-18
			c-3.4-2.8-6.5-2.6-8.6-0.3c-2.1,2.3-2.3,2.9-5.5,6.9C354,361.5,352.1,364.7,353.4,366.6z M377.3,368.8c1-0.7,2.3-0.5,3.1,0.5
			c0.7,1,0.5,2.3-0.5,3.1c-1,0.7-2.4,0.5-3.1-0.5C376.1,370.8,376.3,369.5,377.3,368.8z M366.8,354.4c1-0.7,2.3-0.5,3.1,0.5
			c0.7,1,0.5,2.3-0.5,3.1c-1,0.7-2.3,0.5-3.1-0.5C365.6,356.5,365.8,355.1,366.8,354.4z M328.3,348.9c2,1.2,3.7-0.1,6.9-2.1
			c3.2-2,9.5-6.4,9.5-6.4c-0.6,4.6-1.2,9.7-1.6,13.5c-0.3,2.8-0.5,3.8,1.5,5c1.9,1.2,3.8-0.4,5.4-1.7c1.5-1.2,3.4-3.1,7.6-6.8
			c3.9-3.4,3.7-6.6,0-10.2c-3.8-3.6-14.7-10.3-19.1-11.6c-4.2-1.3-7,0.1-8.1,3c-1.1,2.9-1,3.6-2.4,8.5
			C326.8,344,326.3,347.7,328.3,348.9z M351.1,341.8c0.6-1,2-1.4,3-0.7c1,0.6,1.4,2,0.7,3c-0.6,1-2,1.4-3,0.7
			C350.8,344.2,350.5,342.8,351.1,341.8z M336,332.5c0.6-1,2-1.4,3-0.7c1,0.6,1.4,2,0.7,3c-0.6,1-2,1.4-3,0.7
			C335.7,334.9,335.3,333.6,336,332.5z M298.6,342.9c2.3,0.4,3.4-1.5,5.5-4.6c2.1-3.1,6.3-9.6,6.3-9.6c1.2,4.5,2.6,9.5,3.6,13.1
			c0.8,2.7,1,3.7,3.3,4.1c2.2,0.4,3.4-1.8,4.4-3.6c0.9-1.7,2-4.1,4.5-9.2c2.3-4.6,0.9-7.5-3.9-9.4c-4.9-1.9-17.5-3.9-22.1-3.4
			c-4.4,0.4-6.4,2.8-6.3,5.9c0.1,3.1,0.4,3.7,1,8.8C295.4,338.9,296.3,342.5,298.6,342.9z M319.5,325.7c1.2,0.2,2,1.3,1.8,2.5
			c-0.2,1.2-1.3,2-2.5,1.8c-1.2-0.2-2-1.3-1.8-2.5C317.2,326.3,318.3,325.5,319.5,325.7z M301.9,322.9c1.2,0.2,2,1.3,1.8,2.5
			c-0.2,1.2-1.3,2-2.5,1.8c-1.2-0.2-2-1.3-1.8-2.5C299.6,323.6,300.7,322.8,301.9,322.9z M262.1,341.8c2,3.6,4.2,6.5,6.5,6
			c2.3-0.5,2.6-2.7,3.4-6.3c0.8-3.7,2.2-11.3,2.2-11.3c2.8,3.7,6,7.8,8.4,10.7c1.8,2.2,2.3,3,4.6,2.5c2.2-0.5,2.4-3,2.6-5
			c0.2-1.9,0.2-4.6,0.6-10.2c0.3-5.2-2-7.3-7.2-7.2c-5.2,0.1-17.7,3.1-21.7,5.3c-3.9,2.1-4.9,5-3.6,7.9
			C259.1,336.9,259.6,337.3,262.1,341.8z M281.4,323.9c1.2-0.3,2.4,0.4,2.6,1.6c0.3,1.2-0.4,2.4-1.6,2.6c-1.2,0.3-2.4-0.4-2.6-1.6
			C279.5,325.4,280.2,324.2,281.4,323.9z M264.1,328.1c1.2-0.3,2.4,0.4,2.6,1.6c0.3,1.2-0.4,2.4-1.6,2.6c-1.2,0.3-2.4-0.4-2.6-1.6
			C262.2,329.6,262.9,328.4,264.1,328.1z M227.7,355c2.3,2.1,2.9,2.3,6.9,5.5c3.2,2.5,6.4,4.4,8.3,3.1c1.9-1.4,1.3-3.4,0.7-7.1
			c-0.7-3.7-2.3-11.2-2.3-11.2c4,2.4,8.5,4.9,11.8,6.7c2.5,1.4,3.3,1.9,5.2,0.5c1.8-1.3,1.1-3.7,0.5-5.7c-0.5-1.9-1.5-4.3-3.3-9.7
			c-1.7-4.9-4.7-6-9.4-3.9c-4.8,2.1-15.1,9.7-18,13.2C225.2,349.8,225.5,352.9,227.7,355z M245.6,336.7c1-0.7,2.3-0.5,3.1,0.5
			c0.7,1,0.5,2.4-0.5,3.1c-1,0.7-2.4,0.5-3.1-0.5C244.4,338.8,244.6,337.4,245.6,336.7z M231.2,347.1c1-0.7,2.3-0.5,3.1,0.5
			c0.7,1,0.5,2.4-0.5,3.1c-1,0.7-2.3,0.5-3.1-0.5C230,349.2,230.2,347.9,231.2,347.1z M207.9,386.7c2.9,1.1,3.6,1,8.5,2.4
			c4,1.1,7.6,1.7,8.8-0.3c1.2-2-0.1-3.7-2.1-6.9c-2-3.2-6.4-9.5-6.4-9.5c4.6,0.6,9.7,1.2,13.5,1.6c2.8,0.3,3.8,0.5,5-1.5
			c1.2-1.9-0.4-3.8-1.7-5.4c-1.2-1.5-3.1-3.4-6.8-7.6c-3.4-3.9-6.6-3.7-10.2,0c-3.6,3.8-10.3,14.7-11.6,19.1
			C203.6,382.8,205,385.6,207.9,386.7z M217.4,362.9c0.6-1,2-1.4,3-0.7c1,0.6,1.4,2,0.7,3c-0.6,1-2,1.4-3,0.7
			C217.1,365.3,216.8,363.9,217.4,362.9z M208.1,378.1c0.6-1,2-1.4,3-0.7c1,0.6,1.4,2,0.7,3c-0.6,1-2,1.4-3,0.7
			C207.8,380.4,207.5,379.1,208.1,378.1z M202.8,422.2c3.1-0.1,3.7-0.4,8.8-1c4.1-0.5,7.7-1.4,8-3.7c0.4-2.3-1.5-3.4-4.6-5.5
			c-3.1-2.1-9.6-6.3-9.6-6.3c4.5-1.2,9.5-2.6,13.1-3.6c2.7-0.8,3.7-1,4.1-3.3c0.4-2.2-1.8-3.4-3.6-4.4c-1.7-0.9-4.1-2-9.2-4.5
			c-4.6-2.3-7.5-0.9-9.4,3.9c-1.9,4.8-3.9,17.5-3.4,22.1C197.3,420.3,199.7,422.3,202.8,422.2z M204.9,394.8c1.2,0.2,2,1.3,1.8,2.5
			c-0.2,1.2-1.3,2-2.5,1.8c-1.2-0.2-2-1.3-1.8-2.5C202.6,395.4,203.7,394.6,204.9,394.8z M199.7,414.1c0.2-1.2,1.3-2,2.5-1.8
			c1.2,0.2,2,1.3,1.8,2.5c-0.2,1.2-1.3,2-2.5,1.8C200.3,416.5,199.5,415.3,199.7,414.1z M218.5,454c3.6-2,6.5-4.2,6-6.5
			c-0.5-2.3-2.7-2.6-6.3-3.4c-3.7-0.8-11.3-2.2-11.3-2.2c3.7-2.8,7.8-6,10.7-8.4c2.2-1.8,3-2.3,2.5-4.6c-0.5-2.2-3-2.4-5-2.6
			c-1.9-0.2-4.6-0.2-10.2-0.6c-5.2-0.3-7.3,2-7.2,7.2c0.1,5.2,3.1,17.7,5.3,21.7c2.1,3.9,5,4.9,7.9,3.6
			C213.6,457,214.1,456.5,218.5,454z M203.3,436.4c-1.2,0.3-2.4-0.4-2.6-1.6c-0.3-1.2,0.4-2.4,1.6-2.6c1.2-0.3,2.4,0.4,2.6,1.6
			C205.2,434.9,204.5,436.1,203.3,436.4z M207.5,453.6c-1.2,0.3-2.4-0.4-2.6-1.6c-0.3-1.2,0.4-2.4,1.6-2.6c1.2-0.3,2.4,0.4,2.6,1.6
			C209.4,452.2,208.7,453.3,207.5,453.6z M240.3,473.2c-1.4-1.9-3.4-1.3-7.1-0.7c-3.7,0.7-11.2,2.3-11.2,2.3c2.3-4,4.9-8.5,6.7-11.8
			c1.4-2.5,1.9-3.3,0.5-5.2c-1.3-1.8-3.7-1.1-5.7-0.5c-1.9,0.5-4.3,1.5-9.7,3.3c-4.9,1.7-6,4.7-3.9,9.4c2.1,4.8,9.7,15.1,13.2,18
			c3.4,2.8,6.5,2.6,8.6,0.3c2.1-2.3,2.3-2.9,5.5-6.9C239.8,478.2,241.7,475,240.3,473.2z M216.5,471c-1,0.7-2.3,0.5-3.1-0.5
			c-0.7-1-0.5-2.3,0.5-3.1c1-0.7,2.3-0.5,3.1,0.5C217.7,468.9,217.5,470.3,216.5,471z M227,485.4c-1,0.7-2.3,0.5-3.1-0.5
			c-0.7-1-0.5-2.4,0.5-3.1c1-0.7,2.4-0.5,3.1,0.5C228.1,483.3,227.9,484.6,227,485.4z M265.5,490.8c-2-1.2-3.7,0.1-6.9,2.1
			c-3.2,2-9.5,6.4-9.5,6.4c0.6-4.6,1.2-9.7,1.6-13.5c0.3-2.8,0.5-3.8-1.5-5c-1.9-1.2-3.8,0.4-5.4,1.7c-1.5,1.2-3.4,3.1-7.6,6.8
			c-3.9,3.4-3.7,6.6,0,10.2c3.8,3.6,14.7,10.3,19.1,11.6c4.2,1.3,7-0.1,8.1-3c1.1-2.9,1-3.6,2.4-8.5
			C267,495.7,267.5,492.1,265.5,490.8z M242.6,498c-0.6,1-2,1.4-3,0.7c-1-0.6-1.4-2-0.7-3c0.6-1,2-1.4,3-0.7
			C242.9,495.6,243.3,496.9,242.6,498z M257.8,507.2c-0.6,1-2,1.4-3,0.7c-1-0.6-1.4-2-0.7-3c0.6-1,2-1.4,3-0.7
			C258.1,504.8,258.4,506.2,257.8,507.2z"/>
		<g>
			<path class="st0" d="M269.5,489.8c8.2,3.1,17.2,4.8,26.5,4.8c5.4,0,10.7-0.6,15.7-1.7c-9.8-0.7-19.1-3.3-27.5-7.4L269.5,489.8z"
				/>
			<path class="st0" d="M260.6,466.8l-20.8,2.5c2.8,3.2,5.8,6.1,9.1,8.7l18.8-3.7C265.2,471.9,262.8,469.4,260.6,466.8z"/>
			<path class="st0" d="M270.4,476.5l-18.6,3.7c4.2,3.1,8.8,5.8,13.6,7.9l15.4-4.4C277.1,481.6,273.6,479.2,270.4,476.5z"/>
			<path class="st0" d="M245.8,437h-22.7c1.2,5,2.8,9.7,4.9,14.2l22.5-0.5C248.5,446.3,246.9,441.7,245.8,437z"/>
			<path class="st0" d="M251.8,453.4l-22.4,0.5c2.4,4.6,5.2,8.9,8.4,12.9l20.9-2.5C256,460.9,253.7,457.2,251.8,453.4z"/>
			<path class="st0" d="M311.5,347.7v-1.2c-5-1.1-10.2-1.6-15.5-1.6c-5.2,0-10.2,0.5-15.1,1.5l14.7,4.2
				C300.7,349,306,348,311.5,347.7z"/>
			<path class="st0" d="M252.2,386.3l-22-2.6c-2.6,4.8-4.7,9.8-6.2,15.1l22.7,0.9C248.2,395.1,250,390.6,252.2,386.3z"/>
			<path class="st0" d="M261.8,372.4l-20.7-3.7c-3.6,3.8-6.7,8-9.4,12.5l21.9,2.6C256,379.7,258.8,375.9,261.8,372.4z"/>
			<path class="st0" d="M243.8,420.3c0-0.2,0-0.5,0-0.7h-22.8c0,0.1,0,0.1,0,0.2c0,5,0.5,9.8,1.4,14.5h22.7
				C244.3,429.7,243.8,425.1,243.8,420.3z"/>
			<path class="st0" d="M246,402.5l-22.7-0.9c-1.2,4.9-2,10-2.2,15.3h22.8C244.2,411.9,244.9,407.1,246,402.5z"/>
			<path class="st0" d="M291.1,352.1l-15.5-4.4c-5.8,1.6-11.4,4-16.5,6.9l19.2,3.9C282.3,355.9,286.6,353.8,291.1,352.1z"/>
			<path class="st0" d="M275.1,360.5l-19.4-3.9c-4.4,2.8-8.5,6.1-12.2,9.7L264,370C267.4,366.5,271.1,363.3,275.1,360.5z"/>
			<path class="st0" d="M345.2,411.3c0.5,1.7,1.2,3.8,1.5,5.8h24.2c-0.2-5-0.8-9.9-1.9-14.6h-29.3
				C342.3,405.6,344.3,408.5,345.2,411.3z"/>
			<path class="st0" d="M332.1,394.6c1.8,1.8,3.5,3.5,5,5.2h31.1c-1.4-4.9-3.2-9.6-5.5-14.1h-40.9
				C325.6,388.7,329.5,392,332.1,394.6z"/>
			<path class="st0" d="M319.2,476.6h25.5c2.8-2.4,5.3-4.9,7.7-7.7h-33.3V476.6z"/>
			<path class="st0" d="M319.2,487.7h8.3c5-2.3,9.6-5.1,13.9-8.4h-22.2V487.7z"/>
			<path class="st0" d="M339.9,426.4c-6.6,1.4-15.7,1.5-20.7,1.5v7.1h50.2c1-4.9,1.5-9.9,1.5-15.1h-24.2
				C346.4,422.7,344.7,425.3,339.9,426.4z"/>
			<path class="st0" d="M319.2,451.2H364c2-4.3,3.6-8.9,4.8-13.6h-49.6V451.2z"/>
			<path class="st0" d="M314.2,379.9c1.1,0.8,2.6,1.9,4.2,3.2h42.9c-2.2-3.9-4.8-7.7-7.6-11.1h-39.4V379.9z"/>
			<path class="st0" d="M288.3,372.2c-0.7,0.1-1.3,0.3-1.8,0.4c-5.7,1.2-21.6,4.3-21.6,4.3l20.8,9.9c-1-1.7-1.5-3.7-1.5-5.8
				C284.1,377.6,285.7,374.4,288.3,372.2z"/>
			<path class="st0" d="M314.2,350v6.8h22.4c-4-2.6-8.2-4.8-12.7-6.6c-2.2-0.2-4.4-0.3-6.7-0.3C316.3,349.9,315.3,350,314.2,350z"/>
			<path class="st0" d="M286.8,381.2c0,4.9,4,8.9,8.9,8.9c4.9,0,8.9-4,8.9-8.9c0-4.9-4-8.9-8.9-8.9
				C290.8,372.3,286.8,376.3,286.8,381.2z"/>
			<path class="st0" d="M340.6,359.6h-25.3h-1v2v7.6h37.1C348,365.6,344.5,362.4,340.6,359.6z"/>
			<path class="st0" d="M320.5,453.9h-1.3v0.6v11.7h35.5c3-3.8,5.7-8,8-12.3H320.5z"/>
			<path class="st0" d="M319.2,424.5c5.3,0,13.8-0.1,17.2-0.8c3.3-0.6,5.7-1.9,6.8-4c0.4-0.8,0.6-1.7,0.6-2.7c0-1.4-0.4-3-1.3-4.8
				c-2.1-4.5-4.3-7.3-6.6-9.8c-0.9-0.9-1.8-1.8-2.7-2.7c-1-1-2.1-2-3.1-3.1c-2.6-2.7-8.5-7.5-12.9-11c-1.1-0.8-2-1.6-2.9-2.2
				c-1.6-1.3-2.7-2.1-2.7-2.1v-16.2c-0.7,0.6-1.8,1.3-3.3,1.8c-1.6,0.6-5.5,1.7-9.7,2.7c5.1,1.2,8.9,5.8,8.9,11.3
				c0,4.4-2.5,8.3-6.2,10.3l-0.4,5.7l-39.7-19c-1.5,2-2.8,4-4.1,6.1l1.2,0.1L258,387l-2.4-0.3c-2.2,4.2-4.1,8.6-5.4,13.2l2.8,0.1
				l-0.1,2.7l-3.5-0.1c-1.2,4.6-1.9,9.3-2.1,14.2c0,0.9-0.1,1.8-0.1,2.7c0,0.1,0,0.2,0,0.4c0,4.9,0.5,9.7,1.5,14.3
				c0.2,0.9,0.4,1.8,0.6,2.7c1.2,4.7,2.9,9.3,5,13.6c0.2,0.5,0.5,0.9,0.7,1.4c2.2,4.2,4.7,8.1,7.7,11.8c0.7,0.8,1.4,1.7,2.1,2.5
				c2.3,2.5,4.7,4.9,7.3,7.1c0.9,0.8,1.8,1.5,2.8,2.2c3.3,2.5,6.9,4.8,10.7,6.7c1.2,0.6,2.5,1.2,3.7,1.8c5.6,2.4,11.5,4.2,17.8,5.1
				c3.1,0.5,6.2,0.7,9.4,0.7v-2.2v-8.4v-2.7V469v-2.7v-11.5c-0.9,0-2,0.1-3.1,0.1c-4.3,0-10,0.1-16.7-1.4
				c-6.7-1.5-12.6-5.2-14.7-6.9c-2.1-1.7-0.6-2-0.2-2.3c0.4-0.4,1.5-0.9,3.5,0.7c2,1.6,4.3,3.7,13.2,5.8c6.8,1.6,7.5,0.9,14.9,1.2
				l0.6,0l2.5-0.1v-0.6v-23.4v-3.2v-6.2h2.7V424.5z M301,408.9c0.1,0.7,0,1.2-0.4,1.7c-0.3,0.4-0.8,0.6-1.4,0.6
				c-0.6,0-1.1-0.1-1.6-0.5c-0.5-0.4-0.8-0.9-1-1.6c-0.1-0.7,0-1.2,0.4-1.7c0.3-0.4,0.8-0.6,1.4-0.6c0.6,0,1.1,0.1,1.6,0.5
				C300.5,407.7,300.8,408.2,301,408.9z M294.5,402.3c0.2-0.5,0.5-0.9,1-1.1c0.5-0.2,1-0.3,1.5-0.1c0.6,0.2,1.1,0.6,1.4,1.2
				c0.4,0.6,0.5,1.2,0.3,1.8c-0.1,0.5-0.5,0.9-1,1.1c-0.5,0.2-1,0.3-1.5,0.1c-0.6-0.2-1.1-0.6-1.4-1.2
				C294.5,403.5,294.4,402.9,294.5,402.3z M290.5,396.9c0.3-0.5,0.7-0.7,1.2-0.8c0.6-0.1,1.2,0.1,1.7,0.5c0.6,0.4,0.9,1,1,1.6
				c0.1,0.5,0,1-0.3,1.5c-0.3,0.4-0.7,0.7-1.2,0.8c-0.6,0.1-1.2-0.1-1.7-0.5c-0.6-0.4-0.9-1-1-1.6
				C290,397.9,290.1,397.4,290.5,396.9z M285.2,393.6c0.5-0.3,1-0.4,1.7-0.2c0.7,0.2,1.2,0.5,1.5,1.1c0.3,0.5,0.4,1,0.3,1.6
				c-0.1,0.6-0.3,1-0.7,1.3c-0.5,0.3-1,0.4-1.7,0.2c-0.7-0.2-1.2-0.6-1.5-1.1c-0.3-0.5-0.4-1-0.3-1.6
				C284.5,394.3,284.7,393.9,285.2,393.6z M259.7,404.5c0.4-0.5,0.8-0.8,1.4-0.8c0.5,0,1.1,0.2,1.5,0.5c0.5,0.4,0.8,0.8,1,1.4
				c0.2,0.6,0.1,1.2-0.3,1.7c-0.4,0.5-0.8,0.8-1.4,0.8c-0.5,0-1.1-0.2-1.5-0.6c-0.5-0.4-0.8-0.8-1-1.4
				C259.2,405.6,259.3,405,259.7,404.5z M256.9,409.5c0.3-0.6,0.7-1,1.2-1.1c0.5-0.1,1,0,1.6,0.3c0.5,0.3,0.9,0.7,1.2,1.2
				c0.3,0.6,0.3,1.2,0,1.8c-0.3,0.6-0.7,0.9-1.2,1.1c-0.5,0.1-1,0-1.6-0.3c-0.5-0.3-0.9-0.7-1.2-1.2
				C256.6,410.6,256.6,410.1,256.9,409.5z M255.1,415.1c0.1-0.6,0.4-1.1,1-1.3c0.5-0.2,1-0.2,1.6-0.1c0.6,0.2,1,0.5,1.4,1
				c0.4,0.5,0.5,1.1,0.4,1.8c0,0.1-0.1,0.2-0.2,0.4c-0.2,0.4-0.4,0.8-0.8,1c-0.5,0.2-1,0.2-1.6,0.1c-0.6-0.2-1-0.5-1.4-1
				c0,0,0,0,0,0C255.1,416.3,255,415.7,255.1,415.1z M254.8,421.4c-0.1-0.7,0.1-1.2,0.5-1.6c0.1-0.1,0.3-0.2,0.4-0.2
				c0.3-0.1,0.6-0.2,1-0.2c0.3,0,0.6,0.1,0.9,0.2c0.2,0.1,0.5,0.2,0.7,0.4c0.5,0.4,0.8,1,0.8,1.7c0.1,0.7-0.1,1.2-0.5,1.6
				c-0.4,0.3-0.9,0.5-1.4,0.5c-0.6,0-1.1-0.2-1.5-0.6C255.1,422.6,254.8,422.1,254.8,421.4z M257.6,429.4c-0.6-0.3-1-0.7-1.3-1.4
				c-0.3-0.7-0.3-1.2,0-1.7c0.2-0.5,0.6-0.8,1.1-0.9c0.5-0.2,1.1-0.1,1.6,0.1c0.6,0.3,1,0.7,1.3,1.4c0.3,0.7,0.3,1.2,0,1.8
				c-0.2,0.5-0.6,0.8-1.1,0.9C258.7,429.7,258.2,429.6,257.6,429.4z M263.6,434.5c-0.1,0.1-0.3,0.2-0.5,0.3
				c-0.3,0.1-0.6,0.2-0.9,0.2c-0.6,0-1.1-0.3-1.7-0.8c0,0,0,0,0,0c-0.5-0.5-0.8-1.1-0.8-1.6c0-0.5,0.2-1,0.6-1.4
				c0.4-0.4,0.8-0.6,1.4-0.6c0.6,0,1.1,0.3,1.7,0.8c0.5,0.5,0.8,1.1,0.8,1.7C264.2,433.6,264,434.1,263.6,434.5z M264.4,402.3
				c-0.4-0.5-0.6-1-0.7-1.5c0-0.6,0.2-1.1,0.7-1.5c0.5-0.4,1-0.6,1.6-0.5c0.5,0.1,1,0.4,1.4,0.8c0.4,0.5,0.6,1,0.7,1.5
				c0,0.6-0.2,1.1-0.7,1.5c-0.5,0.4-1,0.6-1.6,0.5C265.3,403.1,264.8,402.8,264.4,402.3z M269.4,437.4c-0.2,0.5-0.5,0.9-0.9,1.1
				c-0.5,0.3-1.1,0.2-1.7,0c-0.7-0.3-1.1-0.7-1.4-1.3c-0.2-0.5-0.3-1-0.1-1.6c0.2-0.5,0.5-0.9,0.9-1.1c0.5-0.3,1.1-0.2,1.7,0
				c0.7,0.3,1.1,0.7,1.4,1.3C269.5,436.3,269.6,436.8,269.4,437.4z M269.8,400c-0.5-0.2-1-0.6-1.3-1.1c-0.3-0.5-0.5-1-0.4-1.6
				c0.1-0.6,0.4-1,0.9-1.4c0.6-0.3,1.1-0.4,1.7-0.1c0.5,0.2,1,0.6,1.3,1.1c0.3,0.5,0.5,1,0.4,1.6c-0.1,0.6-0.4,1-0.9,1.4
				C270.9,400.2,270.3,400.2,269.8,400z M275,439.5c-0.4,0.4-0.9,0.6-1.6,0.6c-0.7,0-1.2-0.3-1.7-0.8c-0.4-0.4-0.6-0.9-0.6-1.5
				c0-0.6,0.1-1.1,0.4-1.5c0.4-0.4,0.9-0.6,1.6-0.6c0.7,0,1.2,0.3,1.7,0.8c0.4,0.4,0.6,0.9,0.7,1.5
				C275.4,438.6,275.3,439.1,275,439.5z M274.3,397.7c-0.5-0.3-0.9-0.7-1.1-1.3c-0.2-0.6-0.3-1.1-0.1-1.6c0.2-0.5,0.6-0.9,1.2-1.1
				c0.6-0.2,1.2-0.1,1.8,0.2c0.5,0.3,0.9,0.7,1.1,1.3c0.2,0.6,0.3,1.1,0.1,1.6c-0.2,0.5-0.6,0.9-1.2,1.1
				C275.4,398.1,274.8,398,274.3,397.7z M281,438.6c-0.2,0.5-0.7,0.9-1.3,1c-0.6,0.1-1.2,0-1.8-0.3c-0.5-0.3-0.8-0.8-1-1.4
				c-0.2-0.6-0.2-1.1,0-1.6c0.2-0.5,0.7-0.9,1.3-1c0.7-0.1,1.2,0,1.8,0.3c0.5,0.3,0.8,0.8,1,1.4C281.2,437.6,281.2,438.1,281,438.6z
				 M281,397c-0.7,0-1.2-0.2-1.7-0.6c-0.4-0.4-0.7-0.9-0.8-1.5c-0.1-0.6,0-1.1,0.3-1.5c0.3-0.5,0.8-0.7,1.5-0.7
				c0.7,0,1.2,0.2,1.7,0.6c0.4,0.4,0.7,0.9,0.8,1.5c0.1,0.6,0,1.1-0.3,1.5C282.2,396.7,281.7,397,281,397z M285.3,437.7
				c-0.6,0.3-1.2,0.3-1.7,0c-0.5-0.2-0.9-0.6-1.2-1.2c-0.3-0.5-0.4-1.1-0.3-1.6c0.1-0.6,0.5-1,1-1.3c0.6-0.3,1.2-0.3,1.7,0
				c0.5,0.2,0.9,0.6,1.2,1.2c0.3,0.5,0.4,1.1,0.3,1.6C286.2,437,285.8,437.4,285.3,437.7z M290.1,434.8c-0.5,0.4-1.1,0.5-1.7,0.3
				c-0.5-0.1-1-0.4-1.4-0.9c-0.4-0.5-0.6-1-0.6-1.5c0-0.6,0.2-1.1,0.8-1.5c0.5-0.4,1.1-0.5,1.7-0.3c0.5,0.1,1,0.5,1.4,0.9
				c0.4,0.5,0.6,1,0.6,1.5C290.9,433.9,290.6,434.4,290.1,434.8z M294.2,431c-0.4,0.5-0.9,0.7-1.5,0.6c-0.5,0-1-0.3-1.5-0.7
				c-0.5-0.4-0.7-0.9-0.8-1.5c-0.1-0.6,0.1-1.1,0.5-1.6c0.4-0.5,0.9-0.7,1.5-0.6c0.5,0,1,0.3,1.5,0.7c0.5,0.4,0.7,0.9,0.8,1.5
				C294.8,430,294.6,430.5,294.2,431z M297.5,426.5c-0.3,0.5-0.8,0.8-1.4,0.9c-0.5,0-1.1-0.1-1.6-0.5c-0.5-0.4-0.9-0.8-1-1.3
				c-0.2-0.6-0.1-1.2,0.2-1.7c0.3-0.6,0.8-0.9,1.4-0.9c0.5,0,1.1,0.1,1.6,0.5c0.5,0.4,0.9,0.8,1,1.3
				C297.9,425.4,297.9,426,297.5,426.5z M300,421.3c-0.2,0.6-0.6,1-1.1,1.2c-0.5,0.1-1,0.1-1.6-0.2c-0.6-0.3-1-0.6-1.2-1.1
				c-0.3-0.6-0.4-1.1-0.1-1.8c0.2-0.6,0.6-1,1.1-1.2c0.5-0.1,1-0.1,1.6,0.2c0.6,0.3,1,0.6,1.2,1.1
				C300.2,420.1,300.2,420.6,300,421.3z M300.4,416.8c-0.4,0.3-1,0.3-1.5,0.2c-0.6-0.1-1.1-0.4-1.4-0.9c-0.4-0.5-0.6-1.1-0.5-1.7
				c0.1-0.7,0.3-1.1,0.8-1.4c0.4-0.3,1-0.3,1.5-0.2c0.6,0.1,1.1,0.4,1.4,0.9c0.4,0.5,0.6,1.1,0.5,1.7
				C301.2,416.1,300.9,416.5,300.4,416.8z"/>
			<path class="st0" d="M300.5,352c-1.7,0.4-3.3,0.9-4.9,1.4c-4.6,1.5-9,3.5-13.1,5.8c-1.2,0.7-2.3,1.4-3.4,2.1
				c-4.2,2.7-8,5.8-11.5,9.4c-0.8,0.8-1.5,1.6-2.2,2.4c-0.4,0.4-0.8,0.9-1.2,1.3c1.2-0.2,2.6-0.5,4.3-0.8c0.7-0.1,1.4-0.3,2.2-0.4
				c4.3-0.8,9.4-1.8,14.8-2.9c22.9-4.6,23.5-5.4,26.1-8.5v-2.3v-2.7v-6.7C307.8,350.5,304.1,351.1,300.5,352z"/>
		</g>
		<path class="st0" d="M214.9,230.4l-12,5.3l1-14.2L214.9,230.4z"/>
	</g>
	<g>
		<path class="st2" d="M115.7,431.5l-0.9-12l10.5-0.8c0.6,0,1.1,0,1.4,0.3c0.3,0.2,0.5,0.6,0.5,1.1c0,0.4,0,0.8-0.2,1
			c-0.2,0.2-0.5,0.4-1.1,0.7c-2.2,0.9-3.9,2.2-5,3.7c-1.1,1.6-1.7,3.5-1.7,5.9L115.7,431.5z M115.9,434.1l40.7-3l1,13.2l0.1,0.8
			c0.1,0.7,0,1.3-0.3,1.7c-0.2,0.4-0.6,0.6-1.1,0.7c-0.8,0.1-1.4-0.3-1.7-1.1c-0.3-0.6-0.4-1-0.5-1.1c-0.1-0.1-0.2-0.2-0.4-0.3
			c-0.3-0.2-0.9-0.3-1.5-0.2l-29.8,2.2c-0.7,0.1-1.2,0.2-1.5,0.5c-0.2,0.1-0.3,0.3-0.3,0.4c0,0.1-0.1,0.5-0.3,1.2
			c-0.2,0.8-0.7,1.2-1.5,1.3c-0.5,0-0.9-0.1-1.2-0.5c-0.3-0.4-0.5-0.9-0.5-1.6l-0.1-0.8L115.9,434.1z M137.4,430l-3.5,0.3
			c-0.6-1.1-1.3-1.9-2-2.4c-0.7-0.5-1.6-0.9-2.7-1c-0.8-0.1-1.3-0.3-1.6-0.5c-0.3-0.2-0.5-0.6-0.5-1.1c0-0.6,0.2-1.1,0.6-1.4
			c0.2-0.2,0.8-0.3,1.7-0.3l11.4-0.8c0.9-0.1,1.6,0,2,0.2c0.4,0.2,0.6,0.6,0.6,1.1c0,0.5-0.1,0.8-0.3,1.1c-0.3,0.3-0.7,0.5-1.4,0.7
			c-1.4,0.4-2.4,1-3.1,1.7C138,428.1,137.5,429,137.4,430z M156.4,428.4l-3.2,0.2c-0.3-1.3-0.7-2.3-1.1-3.1c-0.4-0.8-1-1.6-1.8-2.4
			c-0.8-0.8-1.6-1.4-2.4-1.9c-0.8-0.4-1.9-0.9-3.2-1.2c-0.7-0.2-1.1-0.4-1.3-0.6c-0.2-0.2-0.4-0.5-0.4-1c0-0.6,0.1-1,0.4-1.2
			c0.3-0.2,0.9-0.4,1.7-0.5l10.5-0.8L156.4,428.4z"/>
		<path class="st2" d="M118.9,385.6l40,8.2l-2.7,13.1l-0.2,0.8c-0.1,0.7-0.4,1.2-0.7,1.5c-0.3,0.3-0.8,0.4-1.2,0.3
			c-0.8-0.2-1.2-0.7-1.3-1.5c-0.1-0.7-0.1-1.1-0.2-1.2c0-0.1-0.1-0.3-0.3-0.4c-0.3-0.3-0.7-0.5-1.4-0.7l-29.3-6
			c-0.7-0.1-1.2-0.1-1.6,0c-0.2,0.1-0.3,0.2-0.4,0.3c-0.1,0.1-0.3,0.4-0.6,1c-0.4,0.7-1,1-1.8,0.8c-0.5-0.1-0.8-0.4-1-0.8
			c-0.2-0.4-0.2-1-0.1-1.7l0.2-0.8L118.9,385.6z M151.7,386.2l-23.1-4.7c-1.4-0.3-2.6-0.3-3.5-0.1c-0.6,0.1-1.1,0.4-1.4,0.7
			c-0.3,0.3-0.7,0.9-1,1.6l-3.3-0.7c0.2-1,0.4-1.9,0.7-2.6c0.8-2.4,2.3-4.6,4.6-6.6c2.2-1.9,4.9-3.2,8-3.7c3.1-0.6,6.4-0.5,10,0.2
			c4,0.8,7.4,2.3,10.2,4.4c2.8,2.1,4.8,4.7,6,7.8c0.6,1.5,0.9,2.9,1,4.1c0.1,1.2-0.1,2.7-0.5,4.6l-3.2-0.6c0-0.9-0.1-1.5-0.2-1.8
			c-0.1-0.4-0.3-0.7-0.7-1c-0.4-0.4-0.8-0.7-1.3-0.9C153.5,386.6,152.7,386.4,151.7,386.2z"/>
		<path class="st2" d="M172.5,355.1l-5.7,12.1l-0.3,0.7c-0.3,0.7-0.7,1.1-1.1,1.3c-0.4,0.2-0.8,0.3-1.3,0c-0.7-0.3-1.1-0.9-0.9-1.8
			c0.1-0.7,0.1-1.1,0.1-1.2c0-0.1-0.1-0.3-0.2-0.5c-0.2-0.4-0.6-0.7-1.2-1l-27.1-12.8c-0.6-0.3-1.1-0.4-1.5-0.3
			c-0.2,0-0.4,0.1-0.5,0.2c-0.1,0.1-0.4,0.4-0.9,0.9c-0.6,0.6-1.2,0.7-2,0.4c-0.5-0.2-0.7-0.6-0.8-1c-0.1-0.5,0-1,0.3-1.7l0.3-0.7
			l5.7-12.1l0.3-0.7c0.3-0.7,0.7-1.1,1.1-1.3c0.4-0.2,0.8-0.3,1.3,0c0.7,0.3,1.1,0.9,1,1.8c-0.1,0.7-0.1,1.1-0.1,1.2
			c0,0.1,0.1,0.3,0.2,0.5c0.2,0.4,0.6,0.7,1.2,1l27.1,12.8c0.6,0.3,1.1,0.4,1.5,0.3c0.2,0,0.4-0.1,0.5-0.2c0.1-0.1,0.4-0.4,0.9-0.9
			c0.6-0.6,1.2-0.7,2-0.4c0.5,0.2,0.7,0.6,0.8,1c0.1,0.5,0,1-0.3,1.7L172.5,355.1z"/>
		<path class="st2" d="M175.3,317.8l10.3,8c0.6,0.5,1.1,0.7,1.6,0.7c0.3,0,0.4,0,0.6-0.1c0.1-0.1,0.5-0.4,1.1-0.8
			c0.8-0.6,1.5-0.6,2.2-0.1c0.5,0.4,0.6,0.8,0.5,1.4c0,0.4-0.3,0.9-0.9,1.6l-0.6,0.8l-8.2,10.5l-0.6,0.8c-0.6,0.7-1,1.1-1.4,1.3
			c-0.6,0.2-1.1,0.2-1.5-0.2c-0.7-0.5-0.8-1.3-0.4-2.1c0.3-0.7,0.5-1.2,0.6-1.3c0-0.1,0-0.3,0-0.6c-0.1-0.4-0.4-0.9-1-1.4l-8-6.2
			l-21.1-5.8c-0.8-0.2-1.5-0.2-2.1,0c-0.6,0.2-1,0.3-1.3,0.3c-0.2,0-0.5-0.1-0.8-0.3c-0.8-0.6-0.8-1.6,0.2-2.7l9-11.5
			c0.5-0.6,0.9-1,1.2-1.1c0.6-0.2,1-0.1,1.5,0.2c0.5,0.4,0.7,0.9,0.6,1.6l-0.1,1c0,0.4,0.1,0.7,0.5,1c0.4,0.3,0.8,0.5,1.4,0.6
			L175.3,317.8z M173.8,315.1l-4.1-1.1l-3.6-6.8c-0.3-0.6-0.9-1.2-1.7-1.8c-0.9-0.7-2-0.7-3.1,0c-0.7,0.4-1.1,0.6-1.4,0.6
			c-0.3,0-0.6-0.1-1-0.4c-0.4-0.3-0.6-0.7-0.6-1.2c0-0.3,0.1-0.6,0.2-0.9c0.1-0.3,0.4-0.7,0.9-1.3l4.6-5.8c0.9-1.1,1.7-1.3,2.6-0.6
			c0.3,0.2,0.5,0.5,0.6,0.8c0.1,0.3,0,0.7-0.1,1.3c-0.3,1-0.3,1.9-0.3,2.5c0.1,0.9,0.4,1.7,0.8,2.5l0.8,1.5L173.8,315.1z"/>
		<path class="st2" d="M186,277.2l9.7-7.1l27.5,23.4c0.5,0.4,1,0.7,1.4,1c0.4,0.2,0.9,0.2,1.5,0c0.5-0.1,1-0.2,1.3-0.1
			c0.3,0.1,0.5,0.2,0.8,0.5c0.6,0.8,0.3,1.7-1,2.6l-12,8.8c-0.5,0.4-0.9,0.5-1.4,0.5c-0.5,0-0.8-0.2-1.1-0.6
			c-0.2-0.3-0.4-0.6-0.3-0.9c0-0.3,0.1-0.7,0.4-1.2c0.2-0.4,0.3-0.7,0.3-1c0-0.3-0.1-0.6-0.3-0.9c-0.2-0.3-0.4-0.5-0.6-0.7l-3.3-2.9
			l-6.7,4.9l-1.4-3.3l5.4-4L187.1,280L186,277.2z M188.8,284.6l4.9,4.1l7.2,18.7c0.2,0.5,0.4,1,0.7,1.4c0.7,1,1.8,1.4,3,1.1l1.1-0.2
			c0.7-0.2,1.3,0.1,1.7,0.6c0.6,0.8,0.3,1.6-0.9,2.5l-6.1,4.5c-0.6,0.4-1.2,0.7-1.7,0.7c-0.5,0-1-0.2-1.3-0.6
			c-0.3-0.5-0.3-1.1,0.2-1.9c0.4-0.8,0.7-1.4,0.9-1.9c0.1-0.5,0.2-1,0.2-1.6c0-1-0.3-2.1-0.8-3.4L188.8,284.6z"/>
		<path class="st2" d="M246.4,246.5l11.6,39.1l-12.7,3.8l-0.7,0.2c-0.7,0.2-1.2,0.2-1.7,0.1c-0.4-0.1-0.7-0.5-0.9-0.9
			c-0.2-0.8,0-1.4,0.7-1.9c0.6-0.4,0.9-0.6,1-0.7c0.1-0.1,0.2-0.2,0.2-0.4c0.1-0.4,0.1-0.9-0.1-1.6l-8.5-28.7
			c-0.2-0.7-0.5-1.1-0.8-1.4c-0.2-0.1-0.3-0.2-0.4-0.2c-0.1,0-0.5,0-1.2-0.1c-0.8,0-1.4-0.4-1.6-1.2c-0.1-0.5-0.1-0.9,0.2-1.3
			c0.3-0.4,0.8-0.7,1.5-0.9l0.7-0.2L246.4,246.5z M249,245.7l11.5-3.4l3,10.2c0.2,0.6,0.2,1.1,0,1.4c-0.2,0.3-0.5,0.6-1,0.7
			c-0.4,0.1-0.8,0.1-1,0c-0.2-0.1-0.5-0.4-0.9-0.9c-1.4-2-3-3.4-4.7-4.1c-1.8-0.8-3.8-0.9-6.1-0.5L249,245.7z M255,266.6l-1-3.3
			c1-0.9,1.6-1.7,2-2.5c0.4-0.8,0.5-1.7,0.4-2.9c-0.1-0.8,0-1.3,0.2-1.7s0.5-0.6,0.9-0.7c0.6-0.2,1.1-0.1,1.5,0.3
			c0.2,0.2,0.4,0.8,0.7,1.6l3.2,10.9c0.3,0.9,0.3,1.5,0.2,1.9c-0.1,0.4-0.4,0.7-1,0.8c-0.4,0.1-0.8,0.1-1.2-0.1
			c-0.3-0.2-0.7-0.6-1-1.2c-0.7-1.2-1.5-2.1-2.3-2.6C256.9,266.8,256,266.6,255,266.6z M260.6,284.8l-0.9-3.1
			c1.2-0.6,2.1-1.1,2.8-1.7c0.7-0.6,1.4-1.4,2-2.3c0.6-0.9,1-1.9,1.3-2.8c0.3-0.9,0.4-2,0.5-3.4c0-0.7,0.1-1.2,0.3-1.4
			c0.2-0.3,0.4-0.5,0.8-0.6c0.5-0.2,1-0.1,1.3,0.1c0.3,0.3,0.6,0.8,0.8,1.6l3,10.1L260.6,284.8z"/>
		<path class="st2" d="M291.2,238.5l0.1,3.4c-1.2,0.4-2.2,0.9-2.8,1.7c-0.6,0.7-0.9,1.6-0.9,2.6c0,1,0.3,1.9,0.9,2.6
			c0.6,0.7,1.5,1.4,2.7,2.1c0.9,0.4,2.8,1.3,5.8,2.5c1.8,0.7,3.2,1.4,4.2,2c1,0.6,2,1.4,2.9,2.3c2.4,2.4,3.7,5.3,3.8,8.7
			c0.1,2.6-0.5,4.9-1.7,7.1c-1.2,2.2-2.9,3.9-5.1,5.2c-1.2,0.7-2.5,1.2-3.9,1.6c-1.4,0.4-2.7,0.6-4,0.7l-0.1-3.4
			c1.7-0.5,3-1.1,3.7-1.9c0.8-0.8,1.1-1.8,1.1-3.1c0-1.3-0.7-2.5-1.9-3.5c-0.8-0.6-2.4-1.4-4.6-2.3c-2.5-1-4.2-1.7-5.1-2.2
			c-0.9-0.4-1.8-0.9-2.7-1.5c-3.8-2.6-5.8-6.1-5.9-10.5c-0.1-2.3,0.3-4.4,1.2-6.3c0.9-1.9,2.1-3.5,3.8-4.8
			C284.9,239.8,287.8,238.8,291.2,238.5z M290.8,277.6l0.1,3.4c-1.6,0-3.5-0.4-5.5-1.3c-0.8-0.3-1.3-0.5-1.5-0.6
			c-0.3-0.1-0.6-0.1-0.8-0.1c-0.4,0-0.7,0.1-0.9,0.2c-0.2,0.1-0.5,0.5-0.9,1c-0.3,0.5-0.7,0.7-1.2,0.7c-1.1,0-1.7-0.8-1.8-2.5
			l-0.3-10.9c0-0.6,0.1-1,0.4-1.4c0.3-0.4,0.7-0.6,1.2-0.6c0.4,0,0.8,0.1,1,0.3c0.3,0.3,0.5,0.7,0.7,1.4c0.5,1.7,1.2,3.3,2.1,4.8
			c0.9,1.5,2,2.7,3.2,3.7C287.9,276.7,289.2,277.3,290.8,277.6z M293.7,241.9l-0.1-3.3c1.2,0,2.2,0.2,3.1,0.4
			c0.9,0.2,2.1,0.6,3.8,1.3c0.4,0.1,0.7,0.2,1,0.2c0.4,0,0.7-0.1,0.8-0.4l0.6-0.9c0.3-0.4,0.7-0.7,1.1-0.7c0.5,0,0.9,0.2,1.2,0.5
			c0.3,0.4,0.4,1,0.4,1.8l0.3,9.9c0,0.6-0.1,1.1-0.5,1.4c-0.3,0.4-0.7,0.6-1.3,0.6c-0.4,0-0.8-0.1-1.1-0.4c-0.2-0.2-0.3-0.3-0.5-0.6
			c-0.1-0.2-0.2-0.6-0.3-1.1c-0.2-1-0.7-2-1.2-3c-0.6-1-1.2-1.9-2-2.7C297.7,243.4,295.8,242.3,293.7,241.9z"/>
		<path class="st2" d="M339.9,244.2l-8.3,34.2c-0.2,0.8-0.2,1.3,0,1.7c0.1,0.2,0.2,0.4,0.3,0.5c0.1,0.1,0.5,0.3,1.2,0.7
			c0.9,0.4,1.2,1.1,1,1.9c-0.1,0.5-0.5,0.8-1,1c-0.4,0.1-1.1,0.1-1.9-0.1l-1-0.2l-13-3.2l-0.8-0.2c-0.7-0.2-1.2-0.4-1.5-0.8
			c-0.3-0.4-0.4-0.8-0.3-1.3c0.2-0.8,0.7-1.2,1.5-1.3c0.7-0.1,1.1-0.1,1.2-0.1c0.1,0,0.3-0.1,0.4-0.3c0.3-0.3,0.5-0.7,0.7-1.4
			l7.1-29.1c0.2-0.7,0.2-1.2,0-1.6c-0.1-0.2-0.2-0.3-0.3-0.4c-0.1-0.1-0.4-0.3-1-0.7c-0.7-0.4-1-1.1-0.8-1.9c0.1-0.5,0.4-0.8,0.8-1
			c0.4-0.2,1-0.2,1.7,0l0.8,0.2L339.9,244.2z M336.4,269.3l0.8-3.1c0.9,0,1.5-0.1,1.9-0.2c0.4-0.1,0.8-0.4,1.1-0.8
			c0.6-0.7,1-1.6,1.3-2.9l2.3-9.3c0.2-0.9,0.3-1.6,0.3-2.1c0-0.5-0.2-1-0.5-1.4c-0.4-0.7-1.1-1.2-2-1.6l0.8-3.1c4,1,6.9,2.1,8.6,3.3
			c2,1.4,3.4,3.2,4.2,5.3c0.9,2.2,1,4.6,0.3,7.3c-0.7,3-2,5.3-3.8,6.9c-1.8,1.6-3.9,2.5-6.5,2.8C343,270.5,340.1,270.2,336.4,269.3z
			"/>
		<path class="st2" d="M388.4,263.6l-18,30.1c-0.4,0.7-0.6,1.2-0.5,1.7c0,0.3,0.1,0.4,0.2,0.6c0.1,0.1,0.4,0.5,1,1
			c0.7,0.7,0.8,1.4,0.4,2.2c-0.3,0.4-0.7,0.7-1.3,0.7c-0.5,0-1.1-0.2-1.8-0.7l-0.9-0.5l-11.5-6.9l-0.7-0.4c-0.6-0.4-1-0.8-1.2-1.2
			c-0.2-0.4-0.2-0.9,0.1-1.3c0.4-0.7,1-1,1.8-0.8c0.7,0.1,1.1,0.2,1.2,0.2c0.1,0,0.3,0,0.5-0.1c0.4-0.2,0.7-0.5,1.1-1.1l15.4-25.7
			c0.4-0.6,0.5-1.1,0.5-1.5c0-0.2,0-0.4-0.1-0.5c-0.1-0.1-0.3-0.4-0.8-0.9c-0.5-0.6-0.6-1.3-0.2-2c0.3-0.4,0.6-0.7,1.1-0.7
			c0.5,0,1,0.1,1.6,0.5l0.7,0.4L388.4,263.6z M385.6,286.2c1.4,1.2,2.5,2.2,3.2,3c0.7,0.8,1.2,1.6,1.6,2.6c0.4,1,0.6,1.9,0.5,2.9
			c-0.1,1-0.3,1.9-0.8,2.7l-3.2,5.3c-0.3,0.6-0.3,0.9,0,1.2c0.1,0.1,0.3,0.1,0.4,0.1c0.1,0,0.4-0.1,0.7-0.2c0.8-0.3,1.4-0.3,1.8-0.1
			c0.3,0.2,0.5,0.5,0.6,1c0.1,0.5,0.1,0.9-0.1,1.2c-0.3,0.5-1,1-1.9,1.5c-1,0.5-2,0.8-3.1,0.9c-1,0.1-2,0.1-3-0.2
			c-1-0.2-2-0.7-3.1-1.4c-2.3-1.3-3.6-3-4.1-5.1c-0.5-2-0.1-4.2,1.3-6.5l2.6-4.3c0.6-1,0.9-1.5,1-1.7c0.3-0.7,0.4-1.5,0.3-2.2
			c-0.1-0.9-0.7-1.7-1.5-2.3l1.6-2.7c1,0.4,1.8,0.6,2.4,0.5c0.5-0.1,1-0.3,1.3-0.6c0.4-0.3,0.8-0.9,1.2-1.6l4-6.8
			c0.6-1.1,0.9-2,0.8-2.8c-0.1-0.8-0.6-1.7-1.5-2.6l1.7-2.8l0.7,0.4c1.9,1.1,3.5,2.2,4.7,3.1c1.9,1.4,3.3,3.1,4.1,5.1
			c1.3,2.9,1.1,5.9-0.7,8.8c-1.4,2.4-3.4,3.9-5.8,4.6c-1,0.3-2.1,0.4-3.2,0.3C389.2,287,387.7,286.7,385.6,286.2z"/>
		<path class="st2" d="M431.9,298.6l-30.1,27.7l-9-9.8l-0.5-0.6c-0.5-0.5-0.8-1-0.8-1.5c-0.1-0.5,0.1-0.9,0.5-1.2
			c0.6-0.6,1.3-0.6,2-0.2c0.6,0.3,1,0.5,1.1,0.6c0.1,0,0.3,0.1,0.5,0c0.4,0,0.8-0.3,1.4-0.8l22-20.3c0.5-0.5,0.8-0.9,0.9-1.3
			c0.1-0.2,0.1-0.4,0-0.5c0-0.1-0.2-0.5-0.5-1.1c-0.3-0.8-0.2-1.4,0.4-2c0.4-0.3,0.8-0.5,1.2-0.4c0.5,0.1,0.9,0.4,1.4,0.9l0.5,0.6
			L431.9,298.6z M403.7,328.2l2.4-2.2c1,0.8,2,1.4,2.8,1.8c0.8,0.4,1.8,0.6,2.9,0.8c1.1,0.1,2.1,0.1,3.1,0c0.9-0.2,2-0.5,3.3-1
			c0.6-0.3,1.1-0.4,1.4-0.4c0.3,0,0.6,0.2,0.9,0.5c0.4,0.4,0.5,0.8,0.4,1.2c-0.1,0.4-0.4,0.9-1,1.4l-7.8,7.1L403.7,328.2z
			 M417.6,315.2l2.6-2.4c1.2,0.5,2.2,0.7,3.1,0.7c0.9,0,1.8-0.3,2.8-0.9c0.7-0.4,1.2-0.6,1.6-0.6c0.4,0,0.7,0.2,1.1,0.5
			c0.4,0.5,0.5,1,0.3,1.5c-0.1,0.3-0.5,0.7-1.1,1.3l-8.4,7.7c-0.7,0.6-1.2,1-1.6,1.1c-0.4,0.1-0.8-0.1-1.2-0.5
			c-0.3-0.3-0.5-0.7-0.4-1.1c0-0.4,0.2-0.9,0.6-1.4c0.8-1.2,1.2-2.3,1.4-3.2C418.3,317,418.1,316.1,417.6,315.2z M433.7,300.5
			l8.2,8.9l-7.8,7.2c-0.4,0.4-0.8,0.6-1.2,0.6c-0.4,0-0.7-0.2-1.1-0.6c-0.3-0.3-0.4-0.6-0.5-0.9c0-0.3,0.1-0.7,0.4-1.2
			c1.2-2.1,1.7-4.1,1.6-6c-0.1-1.9-0.9-3.8-2.3-5.7L433.7,300.5z"/>
		<path class="st2" d="M423.5,352l-3,1.6c-0.8-1.4-1.2-3.3-1.3-5.4c0-0.8-0.1-1.4-0.1-1.7c0-0.3-0.1-0.6-0.2-0.8
			c-0.2-0.4-0.4-0.6-0.6-0.7c-0.2-0.1-0.6-0.2-1.3-0.4c-0.6-0.1-0.9-0.4-1.1-0.7c-0.5-1,0-1.9,1.5-2.7l9.6-5.1
			c0.5-0.3,1-0.3,1.5-0.2c0.5,0.1,0.9,0.4,1.1,0.8c0.2,0.4,0.3,0.7,0.1,1.1c-0.1,0.3-0.4,0.8-1,1.2c-1.3,1.2-2.4,2.5-3.3,4
			c-0.9,1.5-1.6,2.9-1.9,4.5C423,349,423,350.5,423.5,352z M458.8,335.2l-3,1.6c-0.9-0.9-1.8-1.5-2.7-1.7c-0.9-0.2-1.9-0.1-2.8,0.4
			c-0.9,0.5-1.5,1.1-1.9,1.9c-0.4,0.8-0.6,1.9-0.7,3.3c0,1,0.1,3,0.3,6.2c0.1,1.9,0.2,3.5,0.1,4.7c-0.1,1.2-0.4,2.3-0.8,3.6
			c-1.1,3.2-3.1,5.6-6.2,7.2c-2.3,1.2-4.7,1.7-7.1,1.6c-2.5-0.1-4.8-0.9-6.9-2.3c-1.1-0.8-2.2-1.7-3.2-2.8c-1-1.1-1.8-2.2-2.3-3.3
			l3-1.6c1.2,1.3,2.3,2.2,3.3,2.5c1,0.3,2.1,0.2,3.2-0.4c1.2-0.6,1.9-1.7,2.3-3.2c0.2-1,0.2-2.7,0.1-5.1c-0.2-2.7-0.3-4.5-0.3-5.5
			c0-1,0.1-2,0.2-3.1c0.6-4.5,2.9-7.9,6.8-9.9c2-1.1,4.1-1.6,6.2-1.7c2.1-0.1,4.1,0.4,5.9,1.3C454.9,330.1,457,332.3,458.8,335.2z
			 M456.8,338.9l2.9-1.5c0.5,1.1,0.8,2.1,1,3c0.2,0.9,0.4,2.2,0.6,3.9c0,0.4,0.1,0.8,0.2,1c0.2,0.3,0.4,0.5,0.7,0.6l1.1,0.2
			c0.5,0.1,0.9,0.3,1.1,0.7c0.3,0.5,0.3,0.9,0,1.3c-0.2,0.4-0.7,0.8-1.4,1.2l-8.7,4.6c-0.5,0.3-1,0.3-1.5,0.2
			c-0.5-0.1-0.8-0.4-1.1-0.9c-0.2-0.4-0.2-0.7-0.2-1.2c0.1-0.2,0.2-0.5,0.3-0.7c0.2-0.2,0.4-0.5,0.9-0.8c0.8-0.7,1.5-1.5,2.1-2.4
			c0.7-1,1.2-2,1.6-3C457.3,343.1,457.4,341,456.8,338.9z"/>
		<path class="st2" d="M436.8,385.7l-3.3,0.8c-0.4-1.6-0.3-3.5,0.1-5.6c0.2-0.8,0.3-1.3,0.3-1.6c0-0.3,0-0.6,0-0.8
			c-0.1-0.4-0.2-0.7-0.4-0.8c-0.2-0.2-0.6-0.4-1.2-0.7c-0.5-0.2-0.8-0.6-0.9-1c-0.3-1.1,0.5-1.8,2.1-2.2l10.6-2.5
			c0.6-0.1,1.1-0.1,1.5,0.1c0.5,0.2,0.8,0.6,0.9,1c0.1,0.4,0.1,0.8-0.1,1.1c-0.2,0.3-0.6,0.6-1.2,1c-1.6,0.8-3,1.9-4.2,3
			c-1.3,1.2-2.3,2.5-3,3.8C437.1,382.6,436.7,384.1,436.8,385.7z M475.2,378.3l-3.4,0.8c-0.6-1.1-1.3-1.9-2.2-2.4
			c-0.8-0.5-1.8-0.6-2.8-0.3c-1,0.2-1.8,0.7-2.4,1.4c-0.6,0.7-1.1,1.7-1.5,3.1c-0.3,0.9-0.7,3-1.3,6.1c-0.3,1.9-0.7,3.4-1.1,4.5
			c-0.4,1.1-0.9,2.2-1.6,3.3c-1.9,2.9-4.5,4.7-7.8,5.5c-2.5,0.6-4.9,0.5-7.3-0.2c-2.4-0.8-4.4-2.1-6.1-4c-0.9-1-1.7-2.2-2.4-3.5
			c-0.7-1.3-1.2-2.6-1.5-3.8l3.3-0.8c0.8,1.6,1.7,2.7,2.6,3.2c0.9,0.6,2,0.7,3.2,0.4c1.3-0.3,2.3-1.2,3-2.6c0.5-0.9,0.9-2.6,1.3-5
			c0.5-2.6,0.8-4.4,1.1-5.4c0.2-1,0.6-2,1-2.9c1.7-4.3,4.8-6.9,9.1-7.9c2.2-0.5,4.4-0.5,6.5-0.1c2.1,0.5,3.9,1.4,5.4,2.8
			C472.6,372.3,474.2,374.9,475.2,378.3z M472.3,381.3l3.2-0.8c0.2,1.2,0.3,2.2,0.3,3.1c0,0.9-0.2,2.2-0.5,3.9c-0.1,0.4-0.1,0.8,0,1
			c0.1,0.4,0.3,0.6,0.6,0.7l1,0.4c0.5,0.2,0.8,0.5,0.9,1c0.1,0.5,0,1-0.3,1.3c-0.3,0.3-0.9,0.6-1.7,0.8l-9.6,2.3
			c-0.6,0.1-1,0.1-1.5-0.2c-0.4-0.2-0.7-0.6-0.8-1.1c-0.1-0.4,0-0.8,0.1-1.2c0.1-0.2,0.3-0.4,0.5-0.6c0.2-0.2,0.5-0.4,1-0.6
			c0.9-0.4,1.8-1,2.7-1.8c0.9-0.8,1.6-1.6,2.3-2.5C471.7,385.6,472.3,383.6,472.3,381.3z"/>
		<path class="st2" d="M476.8,428.9l3.2,0.1c-0.2,2.1-0.7,4.1-1.5,5.9c-0.8,1.8-2,3.4-3.6,4.9c-4.1,3.9-9.7,5.8-16.7,5.5
			c-6.9-0.2-12.2-2.4-16-6.4c-2.9-3.1-4.4-6.9-4.6-11.3l3.3,0.1c0.1,0.5,0.2,0.9,0.4,1.2c0.2,0.3,0.4,0.6,0.8,0.8
			c0.8,0.6,2,0.9,3.7,0.9l26.7,0.9c1.1,0,1.9-0.1,2.5-0.5c0.4-0.2,0.8-0.5,1-0.8C476.4,429.9,476.6,429.5,476.8,428.9z M476.9,426.4
			c-0.3-1-0.8-1.8-1.4-2.2c-0.6-0.4-1.5-0.7-2.7-0.7l-26.7-0.9c-1.8-0.1-3,0.1-3.7,0.6c-0.6,0.4-1.1,1-1.4,2l-3.3-0.1
			c0.5-4.4,2.3-8,5.4-10.9c4-3.7,9.5-5.5,16.4-5.2c3.5,0.1,6.6,0.7,9.3,1.9c2.8,1.1,5.1,2.7,7,4.8c1.4,1.6,2.5,3.3,3.2,5.1
			c0.7,1.8,1.1,3.8,1.1,5.9L476.9,426.4z"/>
	</g>
	<g>
		<path class="st2" d="M222.9,548.3l-1.7,2.9c-1-0.4-1.9-0.4-2.8,0c-0.9,0.4-1.7,1.2-2.4,2.5l-11.7,19.4l-0.6,1
			c-0.2,0.4-0.4,0.8-0.5,1.3c-0.1,0.5-0.1,0.9,0,1.4c0.1,0.5,0.2,0.8,0.4,1.1c0.2,0.3,0.5,0.6,1,1l-1.7,2.9c-3-1.8-5.2-4.2-6.5-7.2
			c-1.1-2.6-1.5-5.4-1.1-8.3c0.4-3,1.6-6.1,3.6-9.3c1.4-2.4,3.1-4.4,5-6c1.9-1.7,3.9-2.9,6.1-3.6c2.2-0.8,4.4-1.1,6.7-1
			c2.3,0.1,4.3,0.7,5.9,1.7L222.9,548.3z M204.7,582.9l1.7-2.9c1.3,0.6,2.8,1,4.7,0.9c1,0,2-0.2,3-0.7c1-0.4,1.9-1,2.8-1.7
			c0.5-0.4,0.9-0.7,1.2-0.7c0.3-0.1,0.7,0,1,0.2c0.4,0.2,0.6,0.6,0.7,1c0.1,0.4,0,0.9-0.3,1.3c-0.4,0.7-1.2,1.4-2.4,2.1
			c-1.1,0.7-2.4,1.2-3.8,1.5c-1.7,0.4-3.2,0.5-4.6,0.4C207.5,584.2,206.1,583.7,204.7,582.9z M223,552.3l1.7-2.9
			c0.7,0.6,1.2,1.1,1.6,1.5c0.4,0.4,1.1,1.3,2,2.5c0.6,0.8,1.1,1.2,1.3,1.4c0.5,0.3,0.9,0.3,1.4,0l0.7-0.4c0.4-0.3,0.9-0.3,1.4,0.1
			c0.4,0.3,0.7,0.6,0.8,1c0.1,0.4,0,0.8-0.3,1.3l-5.9,9.8c-0.4,0.6-0.8,1-1.3,1.1c-0.5,0.1-0.9,0.1-1.2-0.2
			c-0.4-0.2-0.6-0.5-0.7-0.9c-0.1-0.4,0-0.9,0.2-1.5c0.4-1.4,0.7-2.6,0.8-3.5c0.2-1.9,0.2-3.6-0.1-5c-0.2-1-0.5-1.8-0.9-2.5
			C224.2,553.5,223.7,552.9,223,552.3z"/>
		<path class="st2" d="M248.8,563.7c-1,0-1.8,0.2-2.3,0.6c-0.6,0.4-1,1.1-1.4,2.2l-7.9,23.3c-0.5,1.5-0.7,2.7-0.5,3.4
			c0.2,0.6,0.6,1.2,1.5,1.7l-1,2.9c-3.8-1.6-6.5-4.2-8.3-7.6c-2.3-4.5-2.4-9.8-0.3-15.8c1-3,2.4-5.6,4.1-7.7
			c1.7-2.1,3.8-3.8,6.1-4.9c1.8-0.8,3.6-1.4,5.3-1.5c1.8-0.2,3.6,0,5.5,0.6L248.8,563.7z M250.9,564.4l1-2.8
			c1.8,0.7,3.4,1.7,4.8,2.9c1.3,1.2,2.4,2.7,3.3,4.4c2.4,4.7,2.5,10.1,0.5,16.2c-2,6-5.3,10.2-9.9,12.4c-3.5,1.7-7.2,2.1-11.2,1.1
			l1-2.9c0.5,0.1,0.9,0,1.2,0c0.3-0.1,0.6-0.2,0.9-0.5c0.7-0.6,1.3-1.5,1.8-3l7.9-23.3c0.3-0.9,0.4-1.7,0.3-2.4
			c-0.1-0.4-0.2-0.8-0.5-1.1C251.7,565.1,251.4,564.8,250.9,564.4z"/>
		<path class="st2" d="M282.4,568.9l-3.6,32.1c-0.1,0.7,0,1.2,0.2,1.6c0.1,0.2,0.2,0.3,0.4,0.4c0.1,0.1,0.5,0.2,1.2,0.5
			c0.9,0.3,1.2,0.8,1.1,1.7c-0.1,0.5-0.3,0.8-0.8,1.1c-0.4,0.2-1,0.2-1.8,0.1l-0.9-0.1l-12.2-1.4l-0.7-0.1c-0.7-0.1-1.1-0.3-1.5-0.5
			c-0.3-0.3-0.5-0.7-0.4-1.1c0.1-0.7,0.5-1.2,1.3-1.4c0.6-0.1,1-0.2,1.1-0.3c0.1,0,0.2-0.1,0.3-0.3c0.3-0.3,0.4-0.7,0.5-1.4
			l3.1-27.3c0.1-0.6,0-1.1-0.2-1.4c-0.1-0.2-0.2-0.3-0.3-0.3c-0.1-0.1-0.4-0.2-1-0.5c-0.7-0.3-1-0.9-0.9-1.6c0.1-0.5,0.3-0.8,0.6-1
			c0.4-0.2,0.9-0.3,1.6-0.2l0.7,0.1L282.4,568.9z M282.6,589l0.4-3.2c1.1-0.4,2-0.9,2.5-1.4c0.6-0.5,1-1.3,1.4-2.3
			c0.2-0.7,0.5-1.1,0.7-1.4c0.3-0.2,0.6-0.3,1.1-0.3c0.6,0.1,1,0.3,1.1,0.8c0.1,0.3,0.1,0.8,0,1.6l-1.2,10.4
			c-0.1,0.9-0.3,1.5-0.5,1.8c-0.2,0.3-0.6,0.4-1.1,0.4c-0.4,0-0.7-0.2-0.9-0.5c-0.2-0.3-0.3-0.7-0.4-1.4c-0.2-1.3-0.5-2.3-1-3.1
			C284.1,589.9,283.4,589.3,282.6,589z M284.9,569.2l11,1.2l-1.1,9.5c-0.1,0.6-0.2,1.1-0.5,1.3c-0.2,0.3-0.6,0.4-1.1,0.3
			c-0.4,0-0.6-0.2-0.8-0.4c-0.2-0.2-0.3-0.6-0.4-1c-0.2-0.9-0.4-1.8-0.8-2.6c-0.4-0.8-0.8-1.5-1.3-2.1c-0.7-0.8-1.4-1.5-2.3-1.9
			c-0.8-0.5-1.9-0.9-3.1-1.2L284.9,569.2z"/>
		<path class="st2" d="M312.4,569l2.8,32.2c0.1,0.7,0.2,1.2,0.5,1.5c0.2,0.2,0.3,0.3,0.4,0.3c0.1,0,0.6,0.1,1.3,0.2
			c0.9,0.1,1.4,0.6,1.4,1.4c0,0.5-0.2,0.9-0.6,1.2c-0.3,0.3-0.9,0.4-1.7,0.5l-0.9,0.1l-12.2,1.1l-0.7,0.1c-0.7,0.1-1.2,0-1.5-0.2
			c-0.4-0.2-0.6-0.6-0.6-1c-0.1-0.7,0.3-1.3,1-1.6c0.6-0.3,0.9-0.4,1-0.5c0.1-0.1,0.2-0.2,0.3-0.3c0.2-0.3,0.3-0.8,0.2-1.4
			l-2.4-27.4c-0.1-0.6-0.2-1.1-0.4-1.4c-0.1-0.2-0.2-0.2-0.3-0.3c-0.1,0-0.5-0.1-1.1-0.3c-0.7-0.2-1.2-0.6-1.2-1.4
			c0-0.5,0.1-0.8,0.4-1.1c0.3-0.3,0.8-0.4,1.5-0.5l0.7-0.1L312.4,569z M314.8,568.8l11.1-1l0.8,9.5c0.1,0.6,0,1.1-0.2,1.4
			c-0.2,0.3-0.5,0.5-1,0.5c-0.4,0-0.7,0-0.9-0.2c-0.2-0.2-0.4-0.5-0.6-0.9c-0.4-0.9-0.8-1.7-1.3-2.4c-0.5-0.7-1.1-1.3-1.6-1.8
			c-0.8-0.7-1.7-1.1-2.6-1.5c-0.9-0.3-2-0.5-3.3-0.5L314.8,568.8z M316.4,588.7l-0.3-3.2c1-0.6,1.8-1.2,2.2-1.9
			c0.5-0.6,0.8-1.5,0.9-2.5c0.1-0.7,0.2-1.2,0.4-1.5c0.2-0.3,0.5-0.4,1-0.5c0.6-0.1,1,0.1,1.3,0.6c0.1,0.2,0.3,0.8,0.3,1.6l0.9,10.4
			c0.1,0.9,0,1.4-0.1,1.8c-0.2,0.3-0.5,0.5-1,0.6c-0.4,0-0.8-0.1-1-0.3c-0.3-0.2-0.5-0.6-0.7-1.2c-0.4-1.2-1-2.2-1.6-2.8
			C318.1,589.2,317.3,588.8,316.4,588.7z"/>
		<path class="st2" d="M341.5,563.1l10.9,35.9l-11.7,3.5l-0.7,0.2c-0.6,0.2-1.1,0.2-1.5,0.1c-0.4-0.1-0.7-0.4-0.8-0.9
			c-0.2-0.7,0-1.3,0.6-1.7c0.5-0.4,0.8-0.6,0.9-0.7c0.1-0.1,0.2-0.2,0.2-0.4c0.1-0.3,0.1-0.8-0.1-1.4l-8-26.4
			c-0.2-0.6-0.4-1-0.7-1.2c-0.2-0.1-0.3-0.2-0.4-0.2c-0.1,0-0.5,0-1.1-0.1c-0.8,0-1.3-0.4-1.5-1.1c-0.1-0.4-0.1-0.8,0.2-1.2
			c0.3-0.3,0.7-0.6,1.3-0.8l0.7-0.2L341.5,563.1z M343.8,562.4l10.6-3.2l2.8,9.3c0.2,0.6,0.2,1,0,1.3c-0.1,0.3-0.4,0.5-0.9,0.7
			c-0.4,0.1-0.7,0.1-0.9,0c-0.2-0.1-0.5-0.4-0.8-0.8c-1.3-1.8-2.7-3.1-4.3-3.8s-3.5-0.8-5.6-0.4L343.8,562.4z M349.5,581.6l-0.9-3.1
			c0.9-0.8,1.5-1.6,1.8-2.3c0.3-0.7,0.4-1.6,0.4-2.6c-0.1-0.7,0-1.2,0.1-1.5c0.2-0.3,0.4-0.5,0.9-0.7c0.6-0.2,1-0.1,1.4,0.3
			c0.2,0.2,0.4,0.7,0.6,1.5l3,10c0.2,0.8,0.3,1.4,0.2,1.8c-0.1,0.4-0.4,0.6-0.9,0.8c-0.4,0.1-0.8,0.1-1.1-0.1
			c-0.3-0.2-0.6-0.5-0.9-1.1c-0.7-1.1-1.4-1.9-2.1-2.4C351.3,581.8,350.4,581.5,349.5,581.6z M354.8,598.3l-0.9-2.8
			c1.1-0.5,2-1.1,2.6-1.6c0.6-0.5,1.3-1.3,1.8-2.1c0.6-0.9,1-1.7,1.2-2.6c0.2-0.8,0.4-1.9,0.4-3.1c0-0.6,0.1-1.1,0.3-1.3
			c0.1-0.3,0.4-0.5,0.8-0.6c0.5-0.1,0.9-0.1,1.2,0.1c0.3,0.2,0.5,0.7,0.7,1.4l2.8,9.3L354.8,598.3z"/>
		<path class="st2" d="M369.6,551.1l18.1,32.9l-10.7,5.9l-0.6,0.3c-0.6,0.3-1.1,0.5-1.5,0.4c-0.4,0-0.8-0.3-1-0.7
			c-0.4-0.7-0.3-1.3,0.3-1.8c0.4-0.5,0.7-0.7,0.8-0.8c0.1-0.1,0.1-0.2,0.1-0.4c0.1-0.4-0.1-0.8-0.4-1.4l-13.3-24.1
			c-0.3-0.6-0.6-0.9-1-1.1c-0.2-0.1-0.3-0.1-0.4-0.1c-0.1,0-0.5,0.1-1.1,0.2c-0.8,0.1-1.3-0.1-1.7-0.8c-0.2-0.4-0.2-0.8,0-1.2
			c0.2-0.4,0.6-0.7,1.2-1.1l0.6-0.3L369.6,551.1z M371.8,549.9l9.7-5.3l4.7,8.6c0.3,0.5,0.4,0.9,0.3,1.2c-0.1,0.3-0.3,0.6-0.7,0.8
			c-0.4,0.2-0.6,0.3-0.9,0.2c-0.2-0.1-0.6-0.3-0.9-0.6c-1.6-1.5-3.3-2.4-5-2.8c-1.7-0.3-3.6-0.1-5.5,0.8L371.8,549.9z M381.4,567.5
			l-1.5-2.8c0.7-1,1.1-1.8,1.3-2.6c0.2-0.8,0.1-1.7-0.2-2.7c-0.2-0.7-0.3-1.2-0.2-1.5c0.1-0.3,0.3-0.6,0.7-0.8c0.5-0.3,1-0.3,1.4,0
			c0.2,0.1,0.5,0.6,1,1.3l5.1,9.2c0.4,0.8,0.6,1.3,0.6,1.7c0,0.4-0.2,0.7-0.7,0.9c-0.4,0.2-0.7,0.2-1.1,0.1
			c-0.3-0.1-0.7-0.4-1.1-0.9c-0.9-1-1.7-1.6-2.6-1.9C383.1,567.3,382.3,567.3,381.4,567.5z M389.9,582.8l-1.4-2.6
			c1-0.7,1.7-1.4,2.2-2.1c0.5-0.7,1-1.5,1.3-2.5c0.4-1,0.6-1.9,0.6-2.8c0.1-0.9,0-1.9-0.2-3.2c-0.1-0.6-0.1-1.1,0-1.4
			c0.1-0.3,0.3-0.5,0.6-0.7c0.4-0.2,0.8-0.3,1.2-0.1c0.3,0.2,0.7,0.6,1,1.2l4.7,8.5L389.9,582.8z"/>
	</g>
</g>
</svg>
