<svg width="47" height="47" viewBox="0 0 47 47" fill="none" xmlns="http://www.w3.org/2000/svg">
<path d="M39.4038 35.048C38.538 32.9972 37.2815 31.1343 35.7044 29.5632C34.1321 27.9875 32.2695 26.7313 30.2195 25.8638C30.2012 25.8546 30.1828 25.85 30.1644 25.8408C33.0239 23.7754 34.8828 20.411 34.8828 16.6152C34.8828 10.3271 29.7881 5.23242 23.5 5.23242C17.2119 5.23242 12.1172 10.3271 12.1172 16.6152C12.1172 20.411 13.9761 23.7754 16.8355 25.8454C16.8172 25.8546 16.7988 25.8592 16.7805 25.8684C14.7242 26.7358 12.8791 27.9797 11.2956 29.5678C9.71995 31.1401 8.46368 33.0027 7.59618 35.0526C6.74395 37.0596 6.28432 39.2112 6.24218 41.3912C6.24096 41.4402 6.24955 41.4889 6.26745 41.5345C6.28535 41.5802 6.31221 41.6217 6.34643 41.6568C6.38065 41.6919 6.42154 41.7198 6.4667 41.7388C6.51186 41.7578 6.56037 41.7676 6.60937 41.7676H9.36327C9.56523 41.7676 9.72587 41.6069 9.73046 41.4096C9.82226 37.8662 11.2451 34.5478 13.7603 32.0325C16.3628 29.4301 19.8189 27.998 23.5 27.998C27.181 27.998 30.6372 29.4301 33.2396 32.0325C35.7549 34.5478 37.1777 37.8662 37.2695 41.4096C37.2741 41.6115 37.4348 41.7676 37.6367 41.7676H40.3906C40.4396 41.7676 40.4881 41.7578 40.5333 41.7388C40.5784 41.7198 40.6193 41.6919 40.6536 41.6568C40.6878 41.6217 40.7146 41.5802 40.7325 41.5345C40.7504 41.4889 40.759 41.4402 40.7578 41.3912C40.7119 39.1973 40.2575 37.063 39.4038 35.048ZM23.5 24.5098C21.3933 24.5098 19.4104 23.6882 17.9187 22.1965C16.427 20.7048 15.6055 18.722 15.6055 16.6152C15.6055 14.5085 16.427 12.5257 17.9187 11.034C19.4104 9.54228 21.3933 8.7207 23.5 8.7207C25.6067 8.7207 27.5895 9.54228 29.0812 11.034C30.5729 12.5257 31.3945 14.5085 31.3945 16.6152C31.3945 18.722 30.5729 20.7048 29.0812 22.1965C27.5895 23.6882 25.6067 24.5098 23.5 24.5098Z" fill="#E3E3E3"/>
</svg>
